<svg width="83" height="36" viewBox="0 0 83 36" fill="none" xmlns="http://www.w3.org/2000/svg">
<path d="M73.689 18.0188H68.0903V10.9318L55.7234 18.0188H50.1246V5.61648H55.7234V12.7035L68.0903 5.61648H73.689V18.0188ZM61.9068 1.59459C63.0762 1.59459 64.0979 1.44694 64.972 1.15165C65.846 0.856352 66.6492 0.47247 67.3816 0L69.3305 2.87025C68.9998 3.09468 68.6041 3.33682 68.1434 3.59668C67.6946 3.84472 67.1689 4.08096 66.5665 4.30538C65.9641 4.5298 65.2732 4.71879 64.4936 4.87234C63.7258 5.01409 62.8636 5.08496 61.9068 5.08496C60.9501 5.08496 60.0819 5.01409 59.3023 4.87234C58.5346 4.71879 57.8495 4.5298 57.2471 4.30538C56.6447 4.08096 56.1132 3.84472 55.6525 3.59668C55.2036 3.33682 54.8139 3.09468 54.4831 2.87025L56.4321 0C57.1644 0.47247 57.9676 0.856352 58.8417 1.15165C59.7157 1.44694 60.7374 1.59459 61.9068 1.59459Z" fill="#21C7A3"/>
<path d="M49.411 18.0188H43.1036L41.6685 16.247H30.7544L29.3193 18.0188H23.0118L33.0577 5.61646H39.3652L49.411 18.0188ZM38.7982 12.7035L36.2114 9.51433L33.6247 12.7035H38.7982Z" fill="#21C7A3"/>
<path d="M7.05719e-05 5.61646H23.033V8.80563H5.59884V10.223H19.1351C19.7847 10.223 20.3812 10.3175 20.9246 10.5065C21.4679 10.6955 21.9345 10.9613 22.3243 11.3038C22.7141 11.6463 23.0153 12.0598 23.2279 12.544C23.4523 13.0165 23.5645 13.5421 23.5645 14.1209C23.5645 14.6997 23.4523 15.2312 23.2279 15.7155C23.0153 16.188 22.7141 16.5955 22.3243 16.938C21.9345 17.2806 21.4679 17.5463 20.9246 17.7353C20.3812 17.9243 19.7847 18.0188 19.1351 18.0188H7.05719e-05V5.61646ZM17.1862 14.8296C17.7059 14.8296 17.9657 14.5934 17.9657 14.1209C17.9657 13.6484 17.7059 13.4122 17.1862 13.4122H5.59884V14.8296H17.1862Z" fill="#21C7A3"/>
<path d="M71.4546 22.2632H82.7297V24.18H78.3136V32.8994H75.8707V24.18H71.4546V22.2632Z" fill="#1D94BB"/>
<path d="M65.4677 33.1624C64.2274 33.1624 63.1249 32.9306 62.1603 32.4671C61.1956 31.9911 60.4377 31.3333 59.8864 30.494C59.3352 29.6546 59.0596 28.6774 59.0596 27.5624C59.0596 26.46 59.3164 25.4953 59.8301 24.6685C60.3562 23.8291 61.0766 23.1776 61.9911 22.7141C62.9182 22.238 63.9768 22 65.167 22C66.3571 22 67.3844 22.2694 68.2489 22.8081C69.1258 23.3342 69.8023 24.0796 70.2784 25.0443C70.7545 26.0089 70.9925 27.1427 70.9925 28.4456H61.6529C61.7406 28.8089 61.8847 29.1472 62.0851 29.4604C62.4359 30.0367 62.937 30.4814 63.5885 30.7946C64.2524 31.0953 65.0354 31.2456 65.9375 31.2456C66.7518 31.2456 67.5849 31.1204 68.4368 30.8698C69.2887 30.6067 70.0404 30.2434 70.6918 29.7799V31.5463C70.0404 32.0474 69.2448 32.4421 68.3052 32.7302C67.3782 33.0183 66.4323 33.1624 65.4677 33.1624ZM68.0609 25.4765C67.7603 24.9754 67.3594 24.5933 66.8583 24.3302C66.3697 24.0546 65.7871 23.9168 65.1106 23.9168C64.3965 23.9168 63.7701 24.0609 63.2314 24.349C62.7052 24.6371 62.2918 25.038 61.9911 25.5517C61.8158 25.8649 61.6905 26.2094 61.6153 26.5852H68.4556C68.3804 26.1718 68.2489 25.8022 68.0609 25.4765Z" fill="#1D94BB"/>
<path d="M47.3655 32.8994V22.2632H49.8085V29.6672L55.8595 22.2632H58.6407L54.9011 26.6793L58.9789 32.8994H56.1226L53.3602 28.5021L49.6206 32.8994H47.3655Z" fill="#1D94BB"/>
<path d="M32.5925 22.2631H35.0354V25.0443C35.1106 24.9065 35.192 24.7687 35.2797 24.6309C35.8309 23.804 36.5074 23.1588 37.3092 22.6953C38.1236 22.2318 39.0256 22 40.0153 22C41.0551 22 41.9759 22.238 42.7777 22.7141C43.5795 23.1776 44.2059 23.8291 44.6569 24.6685C45.1079 25.4953 45.3334 26.4662 45.3334 27.5812C45.3334 28.6837 45.1079 29.6546 44.6569 30.494C44.2059 31.3333 43.5795 31.9911 42.7777 32.4671C41.9759 32.9306 41.0551 33.1624 40.0153 33.1624C39.0256 33.1624 38.1298 32.9306 37.328 32.4671C36.5262 32.0036 35.8497 31.3521 35.2985 30.5128C35.1983 30.3749 35.1106 30.2371 35.0354 30.0993V36H32.5925V22.2631ZM42.8529 27.5812C42.8529 26.8671 42.7025 26.2407 42.4019 25.702C42.1137 25.1508 41.7128 24.7248 41.1992 24.4242C40.6855 24.111 40.0967 23.9544 39.4327 23.9544C38.7687 23.9544 38.1423 24.111 37.5535 24.4242C36.9772 24.7248 36.4699 25.1508 36.0314 25.702C35.5929 26.2407 35.2359 26.8671 34.9602 27.5812C35.2359 28.2953 35.5929 28.928 36.0314 29.4792C36.4699 30.0179 36.9772 30.4438 37.5535 30.757C38.1423 31.0577 38.7687 31.2081 39.4327 31.2081C40.0967 31.2081 40.6855 31.0577 41.1992 30.757C41.7128 30.4438 42.1137 30.0179 42.4019 29.4792C42.7025 28.928 42.8529 28.2953 42.8529 27.5812Z" fill="#1D94BB"/>
<path d="M27.7232 32.8993L27.4414 30.2685C27.3912 30.3436 27.3411 30.4251 27.291 30.5128C26.7398 31.3521 26.057 32.0036 25.2427 32.4671C24.4409 32.9306 23.5452 33.1624 22.5555 33.1624C21.5156 33.1624 20.5948 32.9306 19.793 32.4671C18.9912 31.9911 18.3649 31.3333 17.9138 30.494C17.4628 29.6546 17.2373 28.6837 17.2373 27.5812C17.2373 26.4662 17.4628 25.4953 17.9138 24.6685C18.3649 23.8291 18.9912 23.1776 19.793 22.7141C20.5948 22.238 21.5156 22 22.5555 22C23.5452 22 24.4409 22.2318 25.2427 22.6953C26.057 23.1588 26.7461 23.804 27.3098 24.6309C27.3599 24.7186 27.41 24.8 27.4602 24.8752L27.7232 22.2631H30.2414L29.6776 27.5812L30.2414 32.8993H27.7232ZM19.7179 27.5812C19.7179 28.2953 19.8619 28.928 20.1501 29.4792C20.4508 30.0179 20.8579 30.4438 21.3716 30.757C21.8852 31.0577 22.474 31.2081 23.138 31.2081C23.8145 31.2081 24.4409 31.0577 25.0172 30.757C25.5935 30.4438 26.1009 30.0179 26.5393 29.4792C26.9904 28.928 27.3474 28.2953 27.6105 27.5812C27.3474 26.8671 26.9904 26.2407 26.5393 25.702C26.1009 25.1508 25.5935 24.7248 25.0172 24.4242C24.4409 24.111 23.8145 23.9544 23.138 23.9544C22.474 23.9544 21.8852 24.111 21.3716 24.4242C20.8579 24.7248 20.4508 25.1508 20.1501 25.702C19.8619 26.2407 19.7179 26.8671 19.7179 27.5812Z" fill="#1D94BB"/>
<path d="M0.000118256 32.8994V22.2632H3.62696L7.61086 30.7196L11.576 22.2632H15.2028V32.8994H12.9102V24.3867L8.79475 32.8994H6.40817L2.29274 24.4243V32.8994H0.000118256Z" fill="#1D94BB"/>
</svg>
