<svg width="60" height="30" viewBox="0 0 60 30" fill="none" xmlns="http://www.w3.org/2000/svg">
<g filter="url(#filter0_i_0_2844)">
<rect width="60" height="30" rx="15" fill="url(#paint0_linear_0_2844)"/>
<path d="M22.0859 9.5V9.515C22.6409 9.515 22.9559 9.935 22.8059 10.46L21.6809 14.42C21.5159 15.02 20.8559 15.5 20.2409 15.5H15.9359C15.6209 15.5 15.3059 15.755 15.2159 16.055L14.0909 20H9.59094L12.5909 9.5H22.0859ZM17.2409 14.21L18.3659 10.25H17.4359C17.1209 10.25 16.8059 10.505 16.7159 10.805L15.5909 14.75H16.5209C16.8359 14.75 17.1509 14.51 17.2409 14.21ZM24.3181 9.5H28.8181L25.8181 20H21.3181L24.3181 9.5ZM35.0878 12.5H39.5878L37.7578 18.92C37.5778 19.52 36.9328 20 36.3028 20H27.9328C27.3928 20 27.0628 19.58 27.2128 19.055L29.0878 12.5H33.5878L31.6528 19.25H32.5828C32.8978 19.25 33.2278 19.01 33.3178 18.71L35.0878 12.5ZM41.7543 12.5H50.1243C50.6793 12.5 51.0093 12.935 50.8593 13.46L50.4843 14.75H45.9843L46.4043 13.25H45.4743C45.1593 13.25 44.8443 13.505 44.7543 13.805L44.2743 15.5H49.2693C49.8243 15.5 50.1393 15.935 49.9893 16.46L49.2993 18.92C49.1193 19.52 48.4743 20 47.8443 20H39.4743C38.9343 20 38.6043 19.58 38.7543 19.055L39.3393 17H43.8393L43.1943 19.25H44.1243C44.4393 19.25 44.7693 19.01 44.8593 18.71L45.5493 16.25H40.5543C39.9993 16.25 39.6843 15.83 39.8343 15.305L40.3143 13.595C40.4793 12.995 41.1393 12.5 41.7543 12.5Z" fill="url(#paint1_linear_0_2844)"/>
</g>
<defs>
<filter id="filter0_i_0_2844" x="0" y="0" width="60" height="34" filterUnits="userSpaceOnUse" color-interpolation-filters="sRGB">
<feFlood flood-opacity="0" result="BackgroundImageFix"/>
<feBlend mode="normal" in="SourceGraphic" in2="BackgroundImageFix" result="shape"/>
<feColorMatrix in="SourceAlpha" type="matrix" values="0 0 0 0 0 0 0 0 0 0 0 0 0 0 0 0 0 0 127 0" result="hardAlpha"/>
<feOffset dy="4"/>
<feGaussianBlur stdDeviation="2"/>
<feComposite in2="hardAlpha" operator="arithmetic" k2="-1" k3="1"/>
<feColorMatrix type="matrix" values="0 0 0 0 1 0 0 0 0 1 0 0 0 0 1 0 0 0 0.25 0"/>
<feBlend mode="normal" in2="shape" result="effect1_innerShadow_0_2844"/>
</filter>
<linearGradient id="paint0_linear_0_2844" x1="30" y1="0" x2="30" y2="30" gradientUnits="userSpaceOnUse">
<stop stop-color="#556EFB"/>
<stop offset="1" stop-color="#677EFF"/>
</linearGradient>
<linearGradient id="paint1_linear_0_2844" x1="11.907" y1="9.5" x2="52.0813" y2="16.7963" gradientUnits="userSpaceOnUse">
<stop stop-color="white"/>
<stop offset="0.490385" stop-color="#DDDDDD"/>
<stop offset="1" stop-color="white"/>
</linearGradient>
</defs>
</svg>
