<svg width="22" height="22" viewBox="0 0 22 22" fill="none" xmlns="http://www.w3.org/2000/svg">
<path d="M17 6.98665C14.78 6.76665 12.5467 6.65332 10.32 6.65332C9 6.65332 7.68 6.71999 6.36 6.85332L5 6.98665" stroke="#171717" stroke-width="1.5" stroke-linecap="round" stroke-linejoin="round"/>
<path d="M8.66699 6.31325L8.81366 5.43992C8.92033 4.80659 9.00033 4.33325 10.127 4.33325H11.8737C13.0003 4.33325 13.087 4.83325 13.187 5.44659L13.3337 6.31325" stroke="#171717" stroke-width="1.5" stroke-linecap="round" stroke-linejoin="round"/>
<path d="M15.5669 9.09326L15.1336 15.8066C15.0603 16.8533 15.0003 17.6666 13.1403 17.6666H8.86026C7.00026 17.6666 6.94026 16.8533 6.86693 15.8066L6.43359 9.09326" stroke="#171717" stroke-width="1.5" stroke-linecap="round" stroke-linejoin="round"/>
<path d="M9.88672 14H12.1067" stroke="#171717" stroke-width="1.5" stroke-linecap="round" stroke-linejoin="round"/>
<path d="M9.33301 11.3333H12.6663" stroke="#171717" stroke-width="1.5" stroke-linecap="round" stroke-linejoin="round"/>
</svg>
