<svg width="390" height="442" viewBox="0 0 390 442" fill="none" xmlns="http://www.w3.org/2000/svg">
<path d="M77.5 42L-7.69114 196.265C-9.27883 199.14 -5.75667 202.109 -3.19153 200.058L197.772 39.3764C200.423 37.2562 204.003 40.4796 202.171 43.3382L19.437 328.493C17.6019 331.357 21.1954 334.582 23.8444 332.449L352.34 67.9161C355.049 65.7346 358.678 69.139 356.673 71.9815L157.044 355.093C155.181 357.734 158.237 361.048 161.02 359.405L346.127 250.147C348.622 248.674 351.549 251.243 350.412 253.908L288.416 399.167C287.357 401.649 289.857 404.159 292.343 403.108L405 355.5" stroke="white" stroke-opacity="0.09" stroke-width="76" stroke-linecap="round"/>
</svg>
