<svg width="24" height="24" viewBox="0 0 24 24" fill="none" xmlns="http://www.w3.org/2000/svg">
<g clip-path="url(#clip0_128_4595)">
<path d="M2 3V2C1.44772 2 1 2.44772 1 3H2ZM13 3H14C14 2.44772 13.5523 2 13 2V3ZM13 9V8C12.7348 8 12.4804 8.10536 12.2929 8.29289C12.1054 8.48043 12 8.73478 12 9H13ZM2 3V4H13V3V2H2V3ZM13 3H12V19H13H14V3H13ZM2 17H3V3H2H1V17H2ZM13 9V10H18V9V8H13V9ZM22 13H21V17H22H23V13H22ZM13 19H14L14 9H13H12L12 19H13ZM19.4142 20.4142L18.7071 19.7071C18.3166 20.0976 17.6834 20.0976 17.2929 19.7071L16.5858 20.4142L15.8787 21.1213C17.0503 22.2929 18.9497 22.2929 20.1213 21.1213L19.4142 20.4142ZM16.5858 17.5858L17.2929 18.2929C17.6834 17.9024 18.3166 17.9024 18.7071 18.2929L19.4142 17.5858L20.1213 16.8787C18.9497 15.7071 17.0503 15.7071 15.8787 16.8787L16.5858 17.5858ZM7.41421 20.4142L6.70711 19.7071C6.31658 20.0976 5.68342 20.0976 5.29289 19.7071L4.58579 20.4142L3.87868 21.1213C5.05025 22.2929 6.94975 22.2929 8.12132 21.1213L7.41421 20.4142ZM4.58579 17.5858L5.29289 18.2929C5.68342 17.9024 6.31658 17.9024 6.70711 18.2929L7.41421 17.5858L8.12132 16.8787C6.94975 15.7071 5.05025 15.7071 3.87868 16.8787L4.58579 17.5858ZM19.4142 17.5858L18.7071 18.2929C18.9026 18.4884 19 18.7425 19 19H20H21C21 18.2338 20.7069 17.4643 20.1213 16.8787L19.4142 17.5858ZM20 19H19C19 19.2575 18.9026 19.5116 18.7071 19.7071L19.4142 20.4142L20.1213 21.1213C20.7069 20.5357 21 19.7662 21 19H20ZM16 19V18H13V19V20H16V19ZM16.5858 20.4142L17.2929 19.7071C17.0974 19.5116 17 19.2575 17 19H16H15C15 19.7662 15.2931 20.5357 15.8787 21.1213L16.5858 20.4142ZM16 19H17C17 18.7425 17.0974 18.4884 17.2929 18.2929L16.5858 17.5858L15.8787 16.8787C15.2931 17.4643 15 18.2338 15 19H16ZM4.58579 20.4142L5.29289 19.7071C5.09744 19.5116 5 19.2575 5 19H4H3C3 19.7662 3.29309 20.5357 3.87868 21.1213L4.58579 20.4142ZM4 19H5C5 18.7425 5.09744 18.4884 5.29289 18.2929L4.58579 17.5858L3.87868 16.8787C3.29309 17.4643 3 18.2338 3 19H4ZM13 19V18H8V19V20H13V19ZM7.41421 17.5858L6.70711 18.2929C6.90256 18.4884 7 18.7425 7 19H8H9C9 18.2338 8.70691 17.4643 8.12132 16.8787L7.41421 17.5858ZM8 19H7C7 19.2575 6.90256 19.5116 6.70711 19.7071L7.41421 20.4142L8.12132 21.1213C8.70691 20.5357 9 19.7662 9 19H8ZM22 17H21C21 17.5523 20.5523 18 20 18V19V20C21.6569 20 23 18.6569 23 17H22ZM18 9V10C19.6569 10 21 11.3431 21 13H22H23C23 10.2386 20.7614 8 18 8V9ZM2 17H1C1 18.6569 2.34315 20 4 20V19V18C3.44772 18 3 17.5523 3 17H2Z" fill="#2B933A"/>
</g>
<defs>
<clipPath id="clip0_128_4595">
<rect width="24" height="24" fill="white"/>
</clipPath>
</defs>
</svg>
