<svg width="24" height="24" viewBox="0 0 24 24" fill="none" xmlns="http://www.w3.org/2000/svg">
<path d="M0 3H23.4586V7.62857H5.70226V9.68571H19.4887C20.1504 9.68571 20.7579 9.82286 21.3113 10.0971C21.8647 10.3714 22.3398 10.7571 22.7368 11.2543C23.1338 11.7514 23.4406 12.3514 23.6571 13.0543C23.8857 13.74 24 14.5029 24 15.3429C24 16.1829 23.8857 16.9543 23.6571 17.6571C23.4406 18.3429 23.1338 18.9343 22.7368 19.4314C22.3398 19.9286 21.8647 20.3143 21.3113 20.5886C20.7579 20.8629 20.1504 21 19.4887 21H0V3ZM17.5038 16.3714C18.0331 16.3714 18.2977 16.0286 18.2977 15.3429C18.2977 14.6571 18.0331 14.3143 17.5038 14.3143H5.70226V16.3714H17.5038Z" fill="black" fill-opacity="0.25"/>
</svg>
