<svg width="59" height="23" viewBox="0 0 59 23" fill="none" xmlns="http://www.w3.org/2000/svg">
<rect width="59" height="23" rx="5" fill="white"/>
<mask id="mask0_131_1018" style="mask-type:alpha" maskUnits="userSpaceOnUse" x="4" y="4" width="16" height="16">
<path fill-rule="evenodd" clip-rule="evenodd" d="M7.96383 4.007L8.64604 4L15.7443 4.00274C15.8519 4.00384 15.9188 4.00518 15.9858 4.007C16.3377 4.01635 16.6926 4.03696 17.0407 4.09879C17.394 4.16144 17.7225 4.26394 18.0433 4.42552C18.3585 4.58407 18.6473 4.79126 18.8975 5.03887C19.1477 5.28589 19.3573 5.57113 19.5176 5.88302C19.6814 6.20041 19.7848 6.52523 19.8481 6.87449C19.9107 7.21852 19.9315 7.56943 19.941 7.91733C19.9454 8.07697 19.9474 8.23664 19.9482 8.39656L19.9492 8.68088L19.9493 14.9815C19.9493 15.1711 19.9493 15.3607 19.9482 15.5506C19.9474 15.7102 19.9454 15.8699 19.941 16.0295C19.9315 16.3772 19.9107 16.7283 19.8481 17.0721C19.7848 17.4214 19.6814 17.7465 19.5176 18.0638C19.3573 18.3755 19.1477 18.6607 18.8975 18.908C18.6473 19.1553 18.3585 19.3628 18.0433 19.5213C17.7225 19.6829 17.394 19.7854 17.0407 19.8481C16.6926 19.9099 16.3377 19.9305 15.9858 19.9399L14.9256 19.9481L8.20512 19.9441C8.09748 19.943 8.03067 19.9417 7.96383 19.9399C7.61192 19.9305 7.25695 19.9099 6.90893 19.8481C6.55566 19.7854 6.2271 19.6829 5.90632 19.5213C5.59082 19.3628 5.30229 19.1553 5.05211 18.908C4.80195 18.6607 4.59234 18.3755 4.43168 18.0638C4.26825 17.7465 4.16483 17.4214 4.10118 17.0721C4.03863 16.7283 4.01807 16.3772 4.00862 16.0295C4.00416 15.8699 4.00222 15.7102 4.0014 15.5506L4.00017 15.2659L4 8.9654C4 8.77578 4 8.5859 4.0014 8.39656C4.00222 8.23664 4.00416 8.07697 4.00862 7.91733C4.01807 7.56943 4.03863 7.21852 4.10118 6.87449C4.16483 6.52523 4.26825 6.20041 4.43168 5.88302C4.59234 5.57113 4.80195 5.28589 5.05211 5.03887C5.30229 4.79126 5.59082 4.58407 5.90632 4.42552C6.2271 4.26394 6.55566 4.16144 6.90893 4.09879C7.25695 4.03696 7.61192 4.01635 7.96383 4.007Z" fill="white"/>
</mask>
<g mask="url(#mask0_131_1018)">
<path d="M19.9493 3.99878H4V19.9481H19.9493V3.99878Z" fill="#19AA1E"/>
<path fill-rule="evenodd" clip-rule="evenodd" d="M4 3.99878H19.9493V9.23215L4 6.74007V3.99878Z" fill="#FFB919"/>
<path fill-rule="evenodd" clip-rule="evenodd" d="M4 18.2035L19.9493 15.7114V19.948H4V18.2035Z" fill="#82D714"/>
<path fill-rule="evenodd" clip-rule="evenodd" d="M4 6.4248L9.56724 7.29467C10.2603 6.85598 11.0847 6.61547 11.9747 6.61547C13.2072 6.61547 14.3143 7.07688 15.1204 7.88711C15.2221 7.98936 15.3181 8.09627 15.408 8.20729L19.9493 8.91686V9.54743L15.8692 8.90993C16.1723 9.49164 16.3358 10.1398 16.3358 10.8012C16.3358 11.6557 16.1447 12.5077 15.7496 13.363L15.7376 13.3889L15.5698 13.7485H15.173C14.3537 13.7485 13.8102 13.9936 13.4548 14.4279C13.1758 14.769 13.0145 15.2287 12.9602 15.7303L12.9586 15.746L12.9506 15.8262L12.9472 15.861L12.9408 15.9292C12.92 16.1532 12.9061 16.3431 12.8991 16.4979L19.9493 15.3963V16.0268L4 18.5189V17.8884L11.0582 16.7855L11.0551 16.6439L11.0542 16.604L11.0536 16.5836L11.0525 16.552C11.0461 16.3803 11.0304 16.1602 11.0052 15.8936L11.0004 15.843L10.9917 15.7554C10.9411 15.2512 10.7822 14.7856 10.5039 14.4395C10.1523 14.0022 9.61379 13.7535 8.80105 13.7486L8.77635 13.7485H8.37956L8.21177 13.3889C7.80853 12.5248 7.61352 11.6643 7.61352 10.8012C7.61352 9.71575 8.05387 8.66616 8.82893 7.88711C8.85131 7.86463 8.87392 7.8424 8.89674 7.82047L4 7.05535V6.4248Z" fill="white"/>
<path fill-rule="evenodd" clip-rule="evenodd" d="M11.9745 7.23853C14.2011 7.23853 15.7126 8.95241 15.7126 10.8012C15.7126 11.5434 15.5506 12.3158 15.1728 13.1255C12.9817 13.1255 12.4409 14.6946 12.3386 15.6819L12.3321 15.7477C12.2974 16.1 12.2774 16.3827 12.2719 16.5959L11.6785 16.6886L11.6783 16.6694C11.6761 16.446 11.655 16.1326 11.615 15.7292L11.6132 15.7116C11.5188 14.7265 10.9893 13.1255 8.77614 13.1255C8.39826 12.3158 8.23633 11.5434 8.23633 10.8012C8.23633 8.95241 9.74778 7.23853 11.9745 7.23853Z" fill="#0073FA"/>
</g>
<path fill-rule="evenodd" clip-rule="evenodd" d="M26.8337 7.97729C24.8532 7.97729 23.3678 9.12881 23.3805 11.1288H25.2213C25.1959 10.3288 25.7292 9.55305 26.8337 9.55305C27.6716 9.55305 28.2048 10.0864 28.2048 10.7652C28.2048 11.4682 27.6208 11.8561 26.6813 12.2924C25.4498 12.8621 24.7135 13.1288 23.3805 13.5531V15.8561H30.2361V14.2803H25.8688C26.5051 14.0271 27.1247 13.749 27.6843 13.4924C29.1697 12.8137 30.0457 12.05 30.0457 10.6803C30.0457 9.03184 28.7507 7.97729 26.8337 7.97729ZM33.0292 9.67426H36.584V8.09851H31.2518V15.8561H33.0292V9.67426ZM39.377 8.09851H37.5996V15.8561H39.3643L42.6779 10.8985V15.8561H44.4553V8.09851H42.6779L39.377 13.0561V8.09851ZM53.3804 12.947H51.5395C51.2602 13.8076 50.4096 14.4015 49.4066 14.4015C47.9466 14.4015 46.9944 13.2015 46.9944 11.9773C46.9944 10.7531 47.9212 9.55305 49.4574 9.55305C50.4731 9.55305 51.2602 10.147 51.5395 11.0076H53.3804C53.1138 9.27426 51.6792 7.97729 49.4066 7.97729C46.8929 7.97729 45.217 9.66214 45.217 11.9773C45.217 14.2924 46.8929 15.9773 49.4066 15.9773C51.6792 15.9773 53.1138 14.7046 53.3804 12.947Z" fill="#1A1A1A"/>
</svg>
