<svg width="79" height="108" viewBox="0 0 79 108" fill="none" xmlns="http://www.w3.org/2000/svg">
<path d="M79 20.1042L17.3485 55.7572L0 45.77L61.6515 10.1459L79 20.1042Z" fill="#094211"/>
<path d="M79.0001 20.1042V72.1666L17.3486 107.703V55.7572L79.0001 20.1042Z" fill="#2B933A"/>
<path d="M17.3485 107.703L0 97.7221V45.77L17.3485 55.7571V107.703Z" fill="#198128"/>
<path d="M15.8628 43.1891V20.6306C15.8628 20.6306 16.0161 5.66207 29.5541 0.553618C29.5541 0.553618 38.0005 -2.63078 39.8226 6.27531V29.2405L37.8301 30.1357V7.45027C37.8301 7.45027 36.5274 -0.110518 29.3156 3.03981C29.3156 3.03981 19.1835 7.60359 18.1618 18.8937V41.5833L15.863 43.1891H15.8628Z" fill="#CECECE"/>
<path d="M18.1871 44.6128L15.8599 43.2384L16.3143 18.3228L19.1495 10.3538L26.429 2.61456L35.8532 0.586121L37.991 1.60536L34.7813 2.30794L27.1187 6.17766L21.3717 13.1361L18.1871 44.6128Z" fill="#CECECE"/>
<path d="M40.1479 31.5015L37.8304 30.1354V7.45001C37.8304 7.45001 37.3615 4.89852 35.6914 3.45013L38.415 3.56828L40.1519 5.6629L41.1054 8.16613L40.7479 10.0393L40.1479 31.5013V31.5015Z" fill="#8E8E8E"/>
<path d="M18.1885 44.6128L18.2527 21.7544C18.2527 21.7544 18.406 6.78609 31.9438 1.67743C31.9438 1.67743 40.3902 -1.50697 42.2122 7.39912V30.3643L40.1477 31.5017L40.2198 8.5743C40.2198 8.5743 38.9171 1.01351 31.7053 4.16384C31.7053 4.16384 21.5731 8.72761 20.5515 20.0177L20.4873 43.0071L18.1885 44.613V44.6128Z" fill="#ADADAD"/>
<path d="M61.6515 10.1459V30.137L17.3485 55.7572L0 45.77L61.6515 10.1459Z" fill="#0A5E16"/>
<path d="M34.6958 56.3003V33.7417C34.6958 33.7417 34.8491 18.7732 48.3869 13.6648C48.3869 13.6648 56.8333 10.4804 58.6553 19.3865V42.3517L56.6629 43.2469V20.5614C56.6629 20.5614 55.3602 13.0007 48.1484 16.151C48.1484 16.151 38.0163 20.7148 36.9946 32.0048V54.6944L34.6958 56.3003Z" fill="#CECECE"/>
<path d="M37.0199 57.7241L34.6929 56.3497L35.1473 31.4341L37.9825 23.4651L45.262 15.7257L54.6862 13.6974L56.824 14.7165L53.6141 15.4193L45.9515 19.289L40.2047 26.2474L37.0199 57.7241Z" fill="#CECECE"/>
<path d="M58.9805 44.6128L56.6629 43.2468V20.5613C56.6629 20.5613 56.194 18.0098 54.5239 16.5615L57.2475 16.6796L58.9844 18.7742L59.9379 21.2775L59.5804 23.1506L58.9805 44.6126V44.6128Z" fill="#8E8E8E"/>
<path d="M37.021 57.7241L37.0852 34.8657C37.0852 34.8657 37.2385 19.8974 50.7763 14.7888C50.7763 14.7888 59.2227 11.6044 61.0447 20.5105V43.4756L58.9803 44.613L59.0523 21.6856C59.0523 21.6856 57.7496 14.1248 50.5378 17.2752C50.5378 17.2752 40.4057 21.8389 39.384 33.129L39.3198 56.1185L37.021 57.7243V57.7241Z" fill="#ADADAD"/>
</svg>
