<svg width="71" height="29" viewBox="0 0 71 29" fill="none" xmlns="http://www.w3.org/2000/svg">
<rect width="71" height="29" rx="14.5" fill="url(#paint0_linear_282_2643)"/>
<rect x="0.5" y="0.5" width="70" height="28" rx="14" stroke="white" stroke-opacity="0.5"/>
<path d="M33.184 17.856H37.11V19H31.975V9.9H33.184V17.856ZM38.5827 9.9H39.7917V19H38.5827V9.9ZM44.3828 19L41.1328 9.9H42.4328L45.0718 17.492L47.6978 9.9H49.0108L45.7478 19H44.3828ZM51.547 17.856H55.772V19H50.338V9.9H55.707V11.044H51.547V13.839H55.382V14.97H51.547V17.856Z" fill="white"/>
<g clip-path="url(#clip0_282_2643)">
<path d="M15.1273 20.332C15.2149 20.33 15.302 20.3452 15.3836 20.3768C15.4653 20.4084 15.54 20.4558 15.6033 20.5162C15.6667 20.5767 15.7175 20.649 15.7529 20.7291C15.7883 20.8092 15.8076 20.8955 15.8097 20.983C15.8117 21.0706 15.7965 21.1577 15.7649 21.2394C15.7333 21.321 15.6859 21.3957 15.6255 21.459C15.565 21.5224 15.4927 21.5732 15.4126 21.6086C15.3325 21.644 15.2462 21.6633 15.1587 21.6654L15 21.6667L14.8413 21.6647C14.7538 21.6626 14.6675 21.6434 14.5874 21.608C14.5073 21.5726 14.435 21.5217 14.3745 21.4584C14.3141 21.395 14.2667 21.3204 14.2351 21.2387C14.2035 21.157 14.1883 21.0699 14.1903 20.9824C14.1924 20.8948 14.2117 20.8085 14.2471 20.7284C14.2825 20.6483 14.3333 20.576 14.3967 20.5156C14.46 20.4551 14.5347 20.4077 14.6163 20.3761C14.698 20.3445 14.7851 20.3293 14.8727 20.3314L15 20.3334L15.1273 20.332ZM17.7753 19.5554C17.9262 19.4632 18.1076 19.4347 18.2795 19.4762C18.4514 19.5177 18.5998 19.6258 18.692 19.7767C18.7842 19.9276 18.8127 20.109 18.7712 20.2809C18.7297 20.4528 18.6216 20.6012 18.4707 20.6934C18.3804 20.7484 18.2888 20.8013 18.196 20.852C18.1192 20.8941 18.0348 20.9205 17.9478 20.93C17.8607 20.9394 17.7726 20.9316 17.6886 20.907C17.5189 20.8573 17.3759 20.7422 17.291 20.587C17.2061 20.4319 17.1864 20.2494 17.2361 20.0797C17.2857 19.9099 17.4008 19.7669 17.556 19.682C17.63 19.642 17.7027 19.5994 17.7753 19.5554ZM11.308 19.7767C11.3536 19.702 11.4135 19.637 11.4843 19.5854C11.5551 19.5338 11.6353 19.4967 11.7205 19.4761C11.8056 19.4556 11.8939 19.452 11.9804 19.4656C12.067 19.4792 12.1499 19.5097 12.2247 19.5554C12.2967 19.5994 12.37 19.642 12.4447 19.682C12.5998 19.767 12.7149 19.9101 12.7645 20.0799C12.8141 20.2497 12.7943 20.4322 12.7093 20.5874C12.6244 20.7425 12.4812 20.8576 12.3115 20.9072C12.1417 20.9568 11.9591 20.937 11.804 20.852C11.7107 20.8014 11.6193 20.748 11.5293 20.6934C11.4546 20.6477 11.3896 20.5878 11.338 20.517C11.2864 20.4463 11.2493 20.366 11.2287 20.2809C11.2082 20.1958 11.2046 20.1074 11.2182 20.0209C11.2318 19.9344 11.2623 19.8514 11.308 19.7767ZM15 11C16.0609 11 17.0783 11.4215 17.8284 12.1716C18.5786 12.9218 19 13.9392 19 15C19 16.0609 18.5786 17.0783 17.8284 17.8285C17.0783 18.5786 16.0609 19 15 19C13.9391 19 12.9217 18.5786 12.1716 17.8285C11.4214 17.0783 11 16.0609 11 15C11 13.9392 11.4214 12.9218 12.1716 12.1716C12.9217 11.4215 13.9391 11 15 11ZM19.682 17.556C19.7669 17.4009 19.9099 17.2858 20.0796 17.2361C20.2493 17.1864 20.4318 17.2062 20.587 17.291C20.7421 17.3759 20.8572 17.5189 20.9069 17.6887C20.9566 17.8584 20.9369 18.0409 20.852 18.196C20.8013 18.2894 20.748 18.3807 20.6933 18.4707C20.6477 18.5454 20.5877 18.6104 20.517 18.662C20.4462 18.7136 20.3659 18.7507 20.2808 18.7712C20.1089 18.8127 19.9276 18.7842 19.7767 18.692C19.6257 18.5998 19.5176 18.4515 19.4761 18.2795C19.4346 18.1076 19.4631 17.9263 19.5553 17.7754C19.5993 17.7034 19.642 17.6307 19.682 17.556ZM9.41332 17.2914C9.49013 17.2493 9.57449 17.2227 9.66157 17.2132C9.74866 17.2037 9.83675 17.2115 9.92083 17.2361C10.0049 17.2607 10.0833 17.3016 10.1516 17.3565C10.2198 17.4114 10.2766 17.4792 10.3187 17.556C10.3587 17.63 10.4013 17.7034 10.4453 17.776C10.492 17.8508 10.5233 17.934 10.5376 18.021C10.5519 18.1079 10.5488 18.1968 10.5285 18.2825C10.5082 18.3683 10.4711 18.4491 10.4194 18.5204C10.3676 18.5917 10.3023 18.6521 10.2271 18.698C10.1519 18.7439 10.0683 18.7744 9.98127 18.7879C9.89419 18.8013 9.80533 18.7973 9.7198 18.7762C9.63427 18.755 9.55378 18.7172 9.48298 18.6647C9.41218 18.6123 9.35248 18.5464 9.30732 18.4707C9.25225 18.3804 9.19935 18.2888 9.14865 18.196C9.06382 18.041 9.04405 17.8586 9.09368 17.6889C9.14332 17.5193 9.25829 17.3763 9.41332 17.2914ZM15 13.6667C14.6464 13.6667 14.3072 13.8072 14.0572 14.0572C13.8071 14.3073 13.6667 14.6464 13.6667 15C13.6667 15.3537 13.8071 15.6928 14.0572 15.9428C14.3072 16.1929 14.6464 16.3334 15 16.3334C15.3536 16.3334 15.6927 16.1929 15.9428 15.9428C16.1928 15.6928 16.3333 15.3537 16.3333 15C16.3333 14.6464 16.1928 14.3073 15.9428 14.0572C15.6927 13.8072 15.3536 13.6667 15 13.6667ZM9.01732 14.19C9.10487 14.1921 9.19116 14.2114 9.27125 14.2469C9.35134 14.2823 9.42367 14.3332 9.48409 14.3966C9.54452 14.46 9.59186 14.5346 9.62341 14.6163C9.65497 14.698 9.67011 14.7852 9.66798 14.8727L9.66732 15.064L9.66798 15.1274C9.67214 15.3042 9.60589 15.4754 9.4838 15.6034C9.36171 15.7313 9.1938 15.8056 9.01698 15.8097C8.84017 15.8139 8.66895 15.7476 8.54099 15.6255C8.41303 15.5034 8.33881 15.3355 8.33465 15.1587L8.33398 14.9207L8.33532 14.8407C8.33951 14.664 8.41371 14.4962 8.5416 14.3742C8.66949 14.2522 8.84061 14.1859 9.01732 14.19ZM20.9827 14.19C21.0702 14.188 21.1573 14.2032 21.239 14.2349C21.3206 14.2665 21.3953 14.3139 21.4586 14.3744C21.5219 14.4349 21.5727 14.5073 21.6081 14.5874C21.6434 14.6675 21.6627 14.7538 21.6647 14.8414L21.6667 15L21.6647 15.1587C21.6626 15.2463 21.6433 15.3325 21.6079 15.4126C21.5725 15.4927 21.5217 15.5651 21.4583 15.6255C21.395 15.686 21.3203 15.7334 21.2386 15.765C21.157 15.7966 21.0699 15.8118 20.9823 15.8097C20.8948 15.8076 20.8085 15.7884 20.7284 15.753C20.6483 15.7176 20.576 15.6667 20.5155 15.6034C20.4551 15.54 20.4077 15.4654 20.3761 15.3837C20.3445 15.302 20.3293 15.2149 20.3313 15.1274L20.3333 15L20.332 14.8727C20.3299 14.7852 20.345 14.698 20.3766 14.6163C20.4081 14.5346 20.4555 14.46 20.5159 14.3966C20.5763 14.3332 20.6486 14.2823 20.7287 14.2469C20.8088 14.2114 20.8951 14.1921 20.9827 14.19ZM19.776 11.308C19.8507 11.2624 19.9337 11.2319 20.0202 11.2183C20.1067 11.2047 20.195 11.2082 20.2802 11.2288C20.3653 11.2494 20.4455 11.2865 20.5163 11.3381C20.5871 11.3896 20.647 11.4546 20.6927 11.5294C20.748 11.6194 20.8013 11.7114 20.852 11.804C20.9369 11.9592 20.9566 12.1417 20.9069 12.3114C20.8572 12.4811 20.7421 12.6242 20.587 12.709C20.4318 12.7939 20.2493 12.8137 20.0796 12.764C19.9099 12.7143 19.7669 12.5992 19.682 12.444C19.6415 12.3697 19.5993 12.2964 19.5553 12.224C19.4633 12.0732 19.4349 11.892 19.4764 11.7202C19.5179 11.5485 19.6259 11.4002 19.7767 11.308H19.776ZM9.30665 11.5294C9.39886 11.3785 9.54724 11.2704 9.71914 11.2289C9.89105 11.1874 10.0724 11.2158 10.2233 11.308C10.3742 11.4002 10.4823 11.5486 10.5238 11.7205C10.5653 11.8924 10.5369 12.0738 10.4447 12.2247C10.4007 12.2967 10.358 12.37 10.318 12.4447C10.233 12.5999 10.0899 12.7149 9.92013 12.7645C9.75035 12.8142 9.5678 12.7943 9.41265 12.7094C9.2575 12.6244 9.14245 12.4813 9.09282 12.3115C9.04318 12.1417 9.06303 11.9592 9.14798 11.804C9.19865 11.7107 9.25198 11.6194 9.30665 11.5294ZM17.2913 9.41271C17.3762 9.25768 17.5192 9.1427 17.6889 9.09307C17.8585 9.04344 18.0409 9.06321 18.196 9.14804C18.2893 9.19871 18.3807 9.25204 18.4707 9.30671C18.6216 9.39891 18.7297 9.54729 18.7712 9.7192C18.8127 9.89111 18.7842 10.0725 18.692 10.2234C18.5998 10.3743 18.4514 10.4824 18.2795 10.5239C18.1076 10.5654 17.9262 10.5369 17.7753 10.4447C17.703 10.4007 17.6296 10.3585 17.5553 10.318C17.4785 10.2759 17.4108 10.2191 17.3559 10.1508C17.3011 10.0826 17.2603 10.0041 17.2358 9.92007C17.2112 9.836 17.2035 9.74792 17.2131 9.66086C17.2226 9.57381 17.2492 9.48948 17.2913 9.41271ZM11.804 9.14804C11.8808 9.10602 11.9652 9.07954 12.0522 9.07011C12.1393 9.06069 12.2273 9.0685 12.3114 9.09311C12.3954 9.11772 12.4738 9.15864 12.542 9.21353C12.6102 9.26842 12.667 9.33622 12.709 9.41304C12.751 9.48986 12.7775 9.57421 12.7869 9.66127C12.7963 9.74833 12.7885 9.83639 12.7639 9.92042C12.7393 10.0045 12.6984 10.0828 12.6435 10.1511C12.5886 10.2193 12.5208 10.276 12.444 10.318C12.3697 10.3585 12.2963 10.4007 12.224 10.4447C12.0733 10.5316 11.8946 10.5561 11.7261 10.513C11.5575 10.4699 11.4125 10.3627 11.322 10.2142C11.2314 10.0657 11.2025 9.88766 11.2413 9.71812C11.2802 9.54857 11.3838 9.40093 11.53 9.30671C11.62 9.25204 11.7113 9.19871 11.804 9.14804ZM15 8.33337L15.1587 8.33537C15.3355 8.33953 15.5034 8.41375 15.6255 8.54171C15.7476 8.66968 15.8138 8.8409 15.8097 9.01771C15.8055 9.19452 15.7313 9.36244 15.6033 9.48452C15.4753 9.60661 15.3041 9.67286 15.1273 9.66871L15 9.66671L14.8727 9.66804C14.6958 9.6722 14.5246 9.60594 14.3967 9.48386C14.2687 9.36177 14.1945 9.19385 14.1903 9.01704C14.1862 8.84023 14.2524 8.66901 14.3745 8.54105C14.4966 8.41309 14.6645 8.33886 14.8413 8.33471L15 8.33337Z" fill="white"/>
</g>
<defs>
<linearGradient id="paint0_linear_282_2643" x1="0" y1="14.5" x2="71" y2="14.5" gradientUnits="userSpaceOnUse">
<stop stop-color="#D40176"/>
<stop offset="1" stop-color="#EC37CE"/>
</linearGradient>
<clipPath id="clip0_282_2643">
<rect width="16" height="16" fill="white" transform="translate(7 7)"/>
</clipPath>
</defs>
</svg>
