<svg width="145" height="55" viewBox="0 0 145 55" fill="none" xmlns="http://www.w3.org/2000/svg">
<path d="M32.103 24V0.191999H59.943V5.216H39.559V8.832H49.479C59.303 8.832 61.671 11.904 61.671 16.128V16.448C61.671 20.768 59.367 24 49.447 24H32.103ZM39.559 18.816H49.415C52.903 18.816 53.895 17.728 53.895 16.32V16.224C53.895 14.784 52.903 13.856 49.415 13.856H39.559V18.816ZM78.8603 16.352V15.808L72.0443 16.864C70.2203 17.152 69.4523 17.472 69.4523 18.464V18.496C69.4523 19.424 70.1562 20.448 72.5883 20.448C76.3963 20.448 78.8603 18.4 78.8603 16.352ZM79.0522 21.632C78.3162 22.56 76.1403 24.32 71.0843 24.32H70.6683C64.8763 24.32 62.6683 21.632 62.6683 18.688V18.464C62.6683 15.296 64.7483 13.792 69.9003 13.312L77.7723 12.576C78.5723 12.48 78.8603 12.224 78.8603 11.68C78.8603 11.04 78.5723 10.272 74.3803 10.272H74.2203C69.9643 10.272 69.8043 11.616 69.7083 12.192H63.0843V12.128C63.0843 9.856 63.7563 6.304 73.3563 6.304H75.1163C85.1003 6.304 85.7403 9.376 85.7403 11.872V18.464C85.7403 18.976 85.9003 19.328 86.6363 19.328H87.5643V24H81.7723C80.3963 24 79.3083 23.264 79.0522 21.632ZM88.9705 24V6.784H96.1065V17.632L106.923 6.784H114.219V24H107.083V13.152L96.2665 24H88.9705ZM101.195 5.376C95.3705 5.376 94.3145 1.888 94.3145 0.255999V0.191999H99.7545C99.7545 0.575998 100.075 1.76 101.739 1.76C103.371 1.76 103.691 0.575998 103.691 0.191999H109.003V0.255999C109.003 1.888 107.499 5.376 102.219 5.376H101.195Z" fill="#B6FB88"/>
<path d="M2.72738 48V31.808H8.83938L14.0554 40.96C14.29 41.408 14.4714 41.8347 14.5994 42.24C14.7487 42.6453 14.8234 42.976 14.8234 43.232V43.328H15.3034V43.232C15.3034 42.976 15.378 42.6453 15.5274 42.24C15.6767 41.8347 15.858 41.408 16.0714 40.96L21.3194 31.808H27.3994V48H23.6234V38.24C23.6234 36.704 23.7727 35.2747 24.0714 33.952H23.5914L16.9994 45.44H13.1274L6.53538 33.952H6.08738C6.38604 35.2747 6.53538 36.704 6.53538 38.24V48H2.72738ZM39.1416 48.384C36.5603 48.384 34.6616 47.9467 33.4456 47.072C32.2296 46.1973 31.6216 45.0133 31.6216 43.52C31.6216 42.048 32.2296 40.8747 33.4456 40C34.6616 39.104 36.5603 38.656 39.1416 38.656C41.1043 38.656 42.7363 38.848 44.0376 39.232C45.339 39.5947 46.6083 40.128 47.8456 40.832V39.424C47.8456 38.4427 47.611 37.5893 47.1416 36.864C46.6723 36.1173 45.9576 35.5413 44.9976 35.136C44.0376 34.7307 42.843 34.528 41.4136 34.528C40.1123 34.528 39.0136 34.688 38.1176 35.008C37.2216 35.3067 36.5283 35.7013 36.0376 36.192C35.547 36.6827 35.227 37.216 35.0776 37.792H31.1416C31.291 36.6187 31.7496 35.552 32.5176 34.592C33.2856 33.632 34.4163 32.864 35.9096 32.288C37.403 31.6907 39.2483 31.392 41.4456 31.392C43.7283 31.392 45.6376 31.7333 47.1736 32.416C48.731 33.0773 49.883 34.016 50.6296 35.232C51.3763 36.448 51.7496 37.888 51.7496 39.552V43.712C51.7496 44.2027 51.8563 44.5653 52.0696 44.8C52.283 45.0133 52.603 45.12 53.0296 45.12C53.3283 45.12 53.659 45.0773 54.0216 44.992V48.096C53.403 48.288 52.763 48.384 52.1016 48.384C51.3123 48.384 50.6403 48.256 50.0856 48C49.5523 47.7653 49.147 47.4133 48.8696 46.944C48.5923 46.4747 48.4536 45.9307 48.4536 45.312V45.152H47.9736V45.184C47.9736 45.7173 47.6323 46.2293 46.9496 46.72C46.267 47.1893 45.2536 47.584 43.9096 47.904C42.5656 48.224 40.9763 48.384 39.1416 48.384ZM40.5496 45.568C42.1283 45.568 43.4936 45.408 44.6456 45.088C45.819 44.768 46.8856 44.3413 47.8456 43.808V42.784C46.7363 42.272 45.627 41.8773 44.5176 41.6C43.4083 41.3227 42.0856 41.184 40.5496 41.184C38.6936 41.184 37.403 41.376 36.6776 41.76C35.9523 42.144 35.5896 42.6773 35.5896 43.36C35.5896 44.0427 35.9523 44.5867 36.6776 44.992C37.403 45.376 38.6936 45.568 40.5496 45.568ZM56.8524 54.208V31.808H60.7884L60.1804 36.32H60.6604C61.0017 35.3173 61.535 34.4533 62.2604 33.728C62.9857 33.0027 63.9244 32.4373 65.0764 32.032C66.2284 31.6053 67.5724 31.392 69.1084 31.392C71.007 31.392 72.6604 31.7547 74.0684 32.48C75.4764 33.2053 76.5537 34.2187 77.3004 35.52C78.0684 36.8 78.4524 38.2613 78.4524 39.904C78.4524 41.568 78.0684 43.04 77.3004 44.32C76.5537 45.6 75.4764 46.6027 74.0684 47.328C72.6604 48.032 71.007 48.384 69.1084 48.384C67.5724 48.384 66.2284 48.1813 65.0764 47.776C63.9244 47.3707 62.9857 46.8053 62.2604 46.08C61.535 45.3333 61.0017 44.4693 60.6604 43.488H60.1804C60.3937 44.6613 60.543 45.6853 60.6284 46.56C60.735 47.4347 60.7884 48.352 60.7884 49.312V54.208H56.8524ZM67.6684 45.216C69.119 45.216 70.3564 44.9813 71.3804 44.512C72.4044 44.0427 73.1724 43.4133 73.6844 42.624C74.2177 41.8133 74.4844 40.9067 74.4844 39.904C74.4844 38.9013 74.2177 37.9947 73.6844 37.184C73.1724 36.3733 72.4044 35.744 71.3804 35.296C70.3564 34.8267 69.119 34.592 67.6684 34.592C66.2177 34.592 64.9804 34.8267 63.9564 35.296C62.9324 35.744 62.1537 36.3733 61.6204 37.184C61.087 37.9947 60.8204 38.9013 60.8204 39.904C60.8204 40.9067 61.087 41.8133 61.6204 42.624C62.1537 43.4133 62.9324 44.0427 63.9564 44.512C64.9804 44.9813 66.2177 45.216 67.6684 45.216ZM96.1109 48L86.0309 39.584L95.8869 31.808H101.359L90.4789 40.096V39.008L101.679 48H96.1109ZM82.4149 48V31.808H86.3509V48H82.4149ZM112.743 48.384C110.46 48.384 108.487 48.0213 106.823 47.296C105.18 46.5493 103.932 45.536 103.079 44.256C102.247 42.9547 101.831 41.504 101.831 39.904C101.831 38.304 102.247 36.864 103.079 35.584C103.932 34.304 105.18 33.2907 106.823 32.544C108.487 31.776 110.481 31.392 112.807 31.392C115.132 31.392 117.116 31.776 118.759 32.544C120.401 33.2907 121.639 34.3147 122.471 35.616C123.324 36.896 123.751 38.336 123.751 39.936C123.751 40.3413 123.729 40.768 123.687 41.216H104.999V38.72H120.839L120.039 40.448V39.904C120.039 38.8373 119.761 37.888 119.207 37.056C118.673 36.2027 117.863 35.5413 116.775 35.072C115.708 34.6027 114.385 34.368 112.807 34.368C111.228 34.368 109.895 34.6027 108.807 35.072C107.74 35.5413 106.929 36.2027 106.375 37.056C105.82 37.888 105.543 38.8373 105.543 39.904C105.543 40.9707 105.82 41.9307 106.375 42.784C106.929 43.616 107.751 44.2667 108.839 44.736C109.927 45.2053 111.26 45.44 112.839 45.44C114.695 45.44 116.135 45.184 117.159 44.672C118.183 44.16 118.961 43.5413 119.495 42.816H123.367C123.047 43.712 122.471 44.5867 121.639 45.44C120.807 46.272 119.644 46.976 118.151 47.552C116.679 48.1067 114.876 48.384 112.743 48.384ZM132.702 48V35.104H125.182V31.808H144.19V35.104H136.638V48H132.702Z" fill="#B4FF86"/>
</svg>
