<svg width="21" height="22" viewBox="0 0 21 22" fill="none" xmlns="http://www.w3.org/2000/svg">
<path d="M13.8117 14.3345C13.4437 14.3345 13.1677 14.1505 12.9837 13.8745L11.8797 11.9425C11.4197 10.9305 10.4997 10.0105 9.48771 9.45853L7.5557 8.35453C7.2797 8.26253 7.0957 7.89455 7.0957 7.61855C7.0957 7.25055 7.2797 6.97455 7.5557 6.79055L9.48771 5.68655C10.4997 5.13455 11.4197 4.30655 11.9717 3.20255L13.0757 1.27055C13.1677 0.994547 13.5357 0.810547 13.8117 0.810547C14.1797 0.810547 14.4557 0.994547 14.6397 1.27055L15.7437 3.20255C16.2957 4.21455 17.2157 5.13455 18.2277 5.68655L20.1597 6.79055C20.4357 6.97455 20.6197 7.25055 20.6197 7.61855C20.6197 7.98655 20.4357 8.26253 20.1597 8.44653L18.2277 9.55053C17.2157 10.1025 16.2957 11.0225 15.7437 12.0345L14.6397 13.9665C14.4557 14.1505 14.1797 14.3345 13.8117 14.3345Z" fill="#2B933A"/>
<path d="M5.43988 21.0507C5.07188 21.0507 4.79588 20.8667 4.61188 20.5907L4.05988 19.4867C3.59988 18.5667 2.86388 17.8307 1.94388 17.3707L0.839883 16.8187C0.563883 16.6347 0.379883 16.2667 0.379883 15.9907C0.379883 15.6227 0.563883 15.3467 0.839883 15.1627L1.94388 14.6107C2.86388 14.1507 3.59988 13.4147 4.05988 12.4947L4.61188 11.3907C4.97988 10.8387 5.89988 10.8387 6.26788 11.3907L6.81988 12.4947C7.27988 13.4147 8.01588 14.1507 8.93588 14.6107L10.0399 15.1627C10.3159 15.3467 10.4999 15.6227 10.4999 15.9907C10.4999 16.3587 10.3159 16.6347 10.0399 16.8187L9.02788 17.3707C8.10788 17.8307 7.37188 18.5667 6.91188 19.4867L6.35988 20.5907C6.08388 20.8667 5.80788 21.0507 5.43988 21.0507Z" fill="#2B933A"/>
</svg>
