<svg width="60" height="30" viewBox="0 0 60 30" fill="none" xmlns="http://www.w3.org/2000/svg">
<g filter="url(#filter0_i_242_245)">
<rect width="60" height="30" rx="15" fill="url(#paint0_linear_242_245)"/>
<path d="M21.525 8.8V8.816C22.117 8.816 22.453 9.264 22.293 9.824L21.093 14.048C20.917 14.688 20.213 15.2 19.557 15.2H14.965C14.629 15.2 14.293 15.472 14.197 15.792L12.997 20H8.197L11.397 8.8H21.525ZM16.357 13.824L17.557 9.6H16.565C16.229 9.6 15.893 9.872 15.797 10.192L14.597 14.4H15.589C15.925 14.4 16.261 14.144 16.357 13.824ZM23.906 8.8H28.706L25.506 20H20.706L23.906 8.8ZM35.3936 12H40.1936L38.2416 18.848C38.0496 19.488 37.3616 20 36.6896 20H27.7616C27.1856 20 26.8336 19.552 26.9936 18.992L28.9936 12H33.7936L31.7296 19.2H32.7216C33.0576 19.2 33.4096 18.944 33.5056 18.624L35.3936 12ZM42.5046 12H51.4326C52.0246 12 52.3766 12.464 52.2166 13.024L51.8166 14.4H47.0166L47.4646 12.8H46.4726C46.1366 12.8 45.8006 13.072 45.7046 13.392L45.1926 15.2H50.5206C51.1126 15.2 51.4486 15.664 51.2886 16.224L50.5526 18.848C50.3606 19.488 49.6726 20 49.0006 20H40.0726C39.4966 20 39.1446 19.552 39.3046 18.992L39.9286 16.8H44.7286L44.0406 19.2H45.0326C45.3686 19.2 45.7206 18.944 45.8166 18.624L46.5526 16H41.2246C40.6326 16 40.2966 15.552 40.4566 14.992L40.9686 13.168C41.1446 12.528 41.8486 12 42.5046 12Z" fill="url(#paint1_linear_242_245)"/>
</g>
<defs>
<filter id="filter0_i_242_245" x="0" y="0" width="60" height="34" filterUnits="userSpaceOnUse" color-interpolation-filters="sRGB">
<feFlood flood-opacity="0" result="BackgroundImageFix"/>
<feBlend mode="normal" in="SourceGraphic" in2="BackgroundImageFix" result="shape"/>
<feColorMatrix in="SourceAlpha" type="matrix" values="0 0 0 0 0 0 0 0 0 0 0 0 0 0 0 0 0 0 127 0" result="hardAlpha"/>
<feOffset dy="4"/>
<feGaussianBlur stdDeviation="2"/>
<feComposite in2="hardAlpha" operator="arithmetic" k2="-1" k3="1"/>
<feColorMatrix type="matrix" values="0 0 0 0 1 0 0 0 0 1 0 0 0 0 1 0 0 0 0.25 0"/>
<feBlend mode="normal" in2="shape" result="effect1_innerShadow_242_245"/>
</filter>
<linearGradient id="paint0_linear_242_245" x1="30" y1="0" x2="30" y2="30" gradientUnits="userSpaceOnUse">
<stop stop-color="#556EFB"/>
<stop offset="1" stop-color="#677EFF"/>
</linearGradient>
<linearGradient id="paint1_linear_242_245" x1="11" y1="9.5" x2="53" y2="17.5" gradientUnits="userSpaceOnUse">
<stop stop-color="white"/>
<stop offset="0.490385" stop-color="#DDDDDD"/>
<stop offset="1" stop-color="white"/>
</linearGradient>
</defs>
</svg>
