<svg width="18" height="18" viewBox="0 0 18 18" fill="none" xmlns="http://www.w3.org/2000/svg">
<g filter="url(#filter0_i_269_1817)">
<rect width="18" height="18" rx="9" fill="#6078FE"/>
<path d="M13.3714 5V5.01286C13.8321 5.01286 14.0936 5.37286 13.969 5.82286L13.0352 9.21714C12.8983 9.73143 12.3505 10.1429 11.84 10.1429H8.26664C8.00517 10.1429 7.74371 10.3614 7.669 10.6186L6.7352 14H3L5.49013 5H13.3714ZM9.34984 9.03714L10.2836 5.64286H9.5117C9.25024 5.64286 8.98877 5.86143 8.91407 6.11857L7.98027 9.5H8.75221C9.01368 9.5 9.27514 9.29429 9.34984 9.03714Z" fill="url(#paint0_linear_269_1817)"/>
</g>
<defs>
<filter id="filter0_i_269_1817" x="0" y="0" width="18" height="22" filterUnits="userSpaceOnUse" color-interpolation-filters="sRGB">
<feFlood flood-opacity="0" result="BackgroundImageFix"/>
<feBlend mode="normal" in="SourceGraphic" in2="BackgroundImageFix" result="shape"/>
<feColorMatrix in="SourceAlpha" type="matrix" values="0 0 0 0 0 0 0 0 0 0 0 0 0 0 0 0 0 0 127 0" result="hardAlpha"/>
<feOffset dy="4"/>
<feGaussianBlur stdDeviation="2"/>
<feComposite in2="hardAlpha" operator="arithmetic" k2="-1" k3="1"/>
<feColorMatrix type="matrix" values="0 0 0 0 1 0 0 0 0 1 0 0 0 0 1 0 0 0 0.25 0"/>
<feBlend mode="normal" in2="shape" result="effect1_innerShadow_269_1817"/>
</filter>
<linearGradient id="paint0_linear_269_1817" x1="3.92289" y1="5" x2="13.9781" y2="5.5176" gradientUnits="userSpaceOnUse">
<stop stop-color="white"/>
<stop offset="0.490385" stop-color="#DDDDDD"/>
<stop offset="1" stop-color="white"/>
</linearGradient>
</defs>
</svg>
