<svg width="151" height="150" viewBox="0 0 151 150" fill="none" xmlns="http://www.w3.org/2000/svg">
<path d="M19.8706 112.055L19.8666 112.043L20.0875 110.848C20.4042 107.245 17.7429 104.068 14.1427 103.757L12.9269 103.774L12.9055 103.75L13.0163 102.515L13.1146 102.539C13.9108 102.609 14.6178 102.016 14.6883 101.22C14.7567 100.418 14.1656 99.7165 13.3694 99.646L13.2696 99.655L13.34 98.8588L13.4403 98.8882C14.2365 98.9587 14.9435 98.3656 15.0139 97.5693C15.0843 96.7731 14.4912 96.0661 13.695 95.9957L13.5952 96.0047L13.6741 95.1219L13.7744 95.1513C14.5706 95.2217 15.2776 94.6286 15.3481 93.8324C15.4165 93.0305 14.8254 92.3292 14.0292 92.2588L13.9236 92.2697L14.0021 91.3486L14.1023 91.378C14.8986 91.4484 15.6056 90.8553 15.676 90.0591C15.7464 89.2629 15.1533 88.5559 14.3571 88.4854L14.2573 88.4944L14.3347 87.6443L14.435 87.6738C15.2312 87.7442 15.9382 87.1511 16.0086 86.3549C16.079 85.5586 15.4859 84.8516 14.6897 84.7812L14.5899 84.7902L14.6716 83.8228L14.7719 83.8523C15.5681 83.9227 16.2751 83.3296 16.3455 82.5334C16.4159 81.7372 15.8228 81.0302 15.0266 80.9597L14.9211 80.9707L14.9935 80.1802L15.0938 80.2097C15.89 80.2801 16.597 79.687 16.6674 78.8908C16.7379 78.0945 16.1447 77.3876 15.3485 77.3171L15.243 77.3281L15.3199 76.4396L15.4202 76.469C16.2164 76.5394 16.9234 75.9463 16.9938 75.1501C17.0623 74.3482 16.4712 73.6469 15.6749 73.5765L15.5752 73.5854L15.6536 72.6643L15.7539 72.6937C16.5501 72.7641 17.2571 72.171 17.3275 71.3748C17.3979 70.5786 16.8048 69.8716 16.0086 69.8012L15.9088 69.8101L15.9862 68.96L16.0865 68.9895C16.8827 69.0599 17.5897 68.4668 17.6601 67.6706C17.7306 66.8743 17.1375 66.1673 16.3412 66.0969L16.2415 66.1059L16.3351 65.0251L16.3788 64.9842L17.5574 65.211C21.1538 65.5297 24.3373 62.8664 24.6482 59.2662L24.6309 58.0696L24.6424 58.0656L117.998 66.2818L117.773 67.4662C117.456 71.0684 120.123 74.2441 123.718 74.557C124.17 74.5992 124.61 74.5878 125.043 74.5399L125.101 74.52L125.169 74.6055L125.077 75.6729L124.521 75.7377C123.983 75.9118 123.573 76.3954 123.523 76.9916C123.467 77.5897 123.787 78.1408 124.29 78.4033L124.826 78.5577L124.752 79.3809L124.194 79.44C123.656 79.614 123.246 80.0976 123.196 80.6938C123.14 81.292 123.46 81.843 123.963 82.1055L124.501 82.2657L124.424 83.1542L123.868 83.219C123.33 83.3931 122.92 83.8767 122.87 84.4729C122.814 85.071 123.14 85.6201 123.637 85.8846L124.175 86.0448L124.098 86.8949L123.542 86.9597C123.004 87.1337 122.593 87.6174 122.543 88.2135C122.488 88.8117 122.814 89.3608 123.311 89.6252L123.847 89.7797L123.784 90.5412L123.227 90.606C122.69 90.7801 122.279 91.2637 122.223 91.8619C122.168 92.4601 122.494 93.0091 122.991 93.2736L123.529 93.4338L123.449 94.3684L122.892 94.4332C122.355 94.6073 121.944 95.0909 121.889 95.6891C121.833 96.2873 122.159 96.8363 122.656 97.1008L123.194 97.261L123.118 98.0784L122.562 98.1432C122.024 98.3173 121.614 98.8009 121.564 99.3971C121.508 99.9952 121.834 100.544 122.331 100.809L122.867 100.963L122.79 101.852L122.232 101.911C121.694 102.085 121.284 102.568 121.234 103.165C121.178 103.763 121.504 104.312 122.001 104.576L122.539 104.737L122.464 105.592L121.907 105.657C121.37 105.831 120.959 106.315 120.909 106.911C120.854 107.509 121.18 108.058 121.677 108.323L122.213 108.477L122.144 109.241L121.588 109.306C121.05 109.48 120.639 109.963 120.584 110.561C120.534 111.158 120.852 111.703 121.351 111.973L121.887 112.128L121.778 113.349L121.717 113.396L121.65 113.368C121.233 113.243 120.8 113.162 120.348 113.119C116.745 112.803 113.568 115.464 113.251 119.066L113.265 120.29L19.9093 112.074L19.8706 112.055Z" fill="#219431"/>
<path d="M25.3605 106.371C24.8701 106.329 24.3981 106.229 23.9487 106.083L24.1593 105.431C24.5586 105.563 24.9804 105.648 25.4132 105.69L25.3528 106.367L25.3605 106.371ZM25.4989 106.38L25.5594 105.703L26.9191 105.822L26.8587 106.499L25.4989 106.38ZM28.2126 106.62L28.2731 105.943L29.6328 106.062L29.5743 106.745L28.2146 106.626L28.2126 106.62ZM30.9321 106.858L30.9905 106.175L32.3502 106.294L32.2898 106.971L30.9301 106.852L30.9321 106.858ZM33.6515 107.096L33.7119 106.419L35.0716 106.538L35.0132 107.22L33.6535 107.101L33.6515 107.096ZM36.3709 107.333L36.4294 106.651L37.7891 106.77L37.7286 107.447L36.3689 107.328L36.3709 107.333ZM39.0846 107.573L39.145 106.896L40.5048 107.015L40.4443 107.692L39.0846 107.573ZM41.804 107.811L41.8625 107.128L43.2222 107.247L43.1638 107.93L41.804 107.811ZM44.5177 108.051L44.5782 107.374L45.9379 107.493L45.8775 108.17L44.5177 108.051ZM47.2372 108.289L47.2976 107.612L48.6573 107.73L48.5969 108.407L47.2372 108.289ZM49.9509 108.528L50.0093 107.846L51.369 107.964L51.3086 108.641L49.9489 108.523L49.9509 108.528ZM52.6703 108.766L52.7307 108.089L54.0904 108.208L54.03 108.885L52.6703 108.766ZM55.384 109.006L55.4444 108.329L56.8041 108.448L56.7437 109.125L55.384 109.006ZM58.1034 109.244L58.1619 108.561L59.5216 108.68L59.4631 109.362L58.1034 109.244ZM60.8171 109.483L60.8755 108.801L62.2353 108.919L62.1748 109.596L60.8151 109.478L60.8171 109.483ZM63.5308 109.723L63.5912 109.046L64.9509 109.165L64.8905 109.842L63.5308 109.723ZM66.2502 109.961L66.3107 109.284L67.6704 109.403L67.6099 110.08L66.2502 109.961ZM68.9697 110.199L69.0301 109.522L70.3898 109.64L70.3294 110.317L68.9697 110.199ZM71.6834 110.438L71.7438 109.761L73.1035 109.88L73.0431 110.557L71.6834 110.438ZM74.4028 110.676L74.4612 109.993L75.8209 110.112L75.7625 110.795L74.4028 110.676ZM77.1165 110.916L77.1769 110.239L78.5366 110.358L78.4762 111.035L77.1165 110.916ZM79.8359 111.154L79.8963 110.477L81.2561 110.595L81.1976 111.278L79.8379 111.159L79.8359 111.154ZM82.5553 111.391L82.6138 110.709L83.9735 110.827L83.9131 111.504L82.5533 111.386L82.5553 111.391ZM85.2748 111.629L85.3352 110.952L86.6949 111.071L86.6345 111.748L85.2748 111.629ZM87.9942 111.867L88.0526 111.184L89.4124 111.303L89.3539 111.986L87.9942 111.867ZM91.4041 112.167L91.6693 112.023C91.7985 111.914 91.912 111.778 91.9946 111.627L92.0223 111.54L92.1358 111.552L92.0753 112.229L91.4118 112.17L91.4041 112.167ZM93.4273 112.344L93.4858 111.662L94.8455 111.78L94.785 112.457L93.4253 112.339L93.4273 112.344ZM96.141 112.584L96.2015 111.907L97.5612 112.026L97.5007 112.703L96.141 112.584ZM98.8604 112.822L98.9189 112.139L100.279 112.258L100.22 112.941L98.8604 112.822ZM101.574 113.062L101.633 112.379L102.992 112.498L102.934 113.18L101.574 113.062ZM104.294 113.299L104.352 112.617L105.712 112.735L105.651 113.412L104.292 113.294L104.294 113.299ZM107.007 113.539L107.068 112.862L108.427 112.981L108.367 113.658L107.007 113.539ZM109.75 113.769L109.77 113.087C110.204 113.096 110.634 113.056 111.048 112.97L111.189 113.635C110.727 113.731 110.247 113.776 109.755 113.767L109.75 113.769ZM22.6459 105.462C22.2373 105.212 21.8512 104.916 21.5145 104.576L21.9942 104.088C22.2978 104.387 22.6355 104.656 23.0014 104.876L22.6439 105.457L22.6459 105.462ZM112.551 113.187L112.266 112.572C112.652 112.387 113.024 112.161 113.358 111.903L113.776 112.439C113.398 112.738 112.99 112.989 112.553 113.193L112.551 113.187ZM20.6108 103.475C20.354 103.07 20.1447 102.634 19.9871 102.181L20.6297 101.958C20.7714 102.365 20.9569 102.751 21.1864 103.115L20.6108 103.475ZM114.799 111.441L114.265 111.015C114.53 110.685 114.763 110.321 114.948 109.929L115.565 110.223C115.358 110.661 115.1 111.066 114.799 111.441ZM19.6712 100.773C19.6316 100.382 19.6264 99.9784 19.6596 99.5745L19.6779 99.3495L20.3606 99.408L20.3423 99.633C20.3066 99.9926 20.3093 100.352 20.3465 100.699L19.6692 100.767L19.6712 100.773ZM116.03 108.858L115.361 108.711C115.41 108.482 115.449 108.243 115.469 108.005L115.523 107.401L116.2 107.462L116.146 108.065C116.125 108.337 116.08 108.596 116.024 108.86L116.03 108.858ZM19.8025 97.9878L19.9213 96.6281L20.6041 96.6865L20.4852 98.0462L19.8025 97.9878ZM115.644 106.047L115.763 104.687L116.44 104.748L116.321 106.108L115.644 106.047ZM20.0422 95.2741L20.1611 93.9144L20.8438 93.9728L20.7249 95.3326L20.0422 95.2741ZM115.884 103.333L116.002 101.974L116.679 102.034L116.561 103.394L115.884 103.333ZM20.28 92.5547L20.3988 91.195L21.0816 91.2534L20.9627 92.6131L20.28 92.5547ZM116.121 100.614L116.24 99.2542L116.917 99.3147L116.798 100.674L116.121 100.614ZM20.5177 89.8352L20.6366 88.4755L21.3193 88.534L21.2004 89.8937L20.5177 89.8352ZM116.359 97.8945L116.478 96.5348L117.155 96.5953L117.036 97.955L116.359 97.8945ZM20.7632 87.1196L20.8821 85.7598L21.5648 85.8183L21.4459 87.178L20.7632 87.1196ZM116.605 95.1788L116.723 93.8191L117.4 93.8796L117.282 95.2393L116.605 95.1788ZM21.001 84.4001L21.1198 83.0404L21.8026 83.0989L21.6837 84.4586L21.001 84.4001ZM116.842 92.4594L116.961 91.0997L117.638 91.1601L117.519 92.5198L116.842 92.4594ZM21.2407 81.6864L21.3596 80.3267L22.0423 80.3852L21.9234 81.7449L21.2407 81.6864ZM117.082 89.7457L117.201 88.386L117.878 88.4464L117.759 89.8062L117.082 89.7457ZM21.4785 78.967L21.5973 77.6073L22.2801 77.6657L22.1612 79.0254L21.4785 78.967ZM117.32 87.0263L117.439 85.6666L118.116 85.727L117.997 87.0867L117.32 87.0263ZM21.7182 76.2533L21.8371 74.8936L22.5198 74.952L22.4009 76.3118L21.7182 76.2533ZM117.56 84.3126L117.678 82.9529L118.355 83.0133L118.237 84.373L117.56 84.3126ZM21.956 73.5339L22.0748 72.1742L22.7576 72.2326L22.6387 73.5923L21.956 73.5339ZM117.797 81.5932L117.916 80.2335L118.593 80.2939L118.474 81.6536L117.797 81.5932ZM22.1957 70.8202L22.3011 69.6066L22.3146 69.4605L22.9936 69.5266L22.9801 69.6728L22.8747 70.8864L22.192 70.8279L22.1957 70.8202ZM118.037 78.8795L118.113 78.0428C118.126 77.8775 118.134 77.7141 118.135 77.5527L118.817 77.5535C118.816 77.7341 118.81 77.9224 118.79 78.1033L118.716 78.9457L118.039 78.8852L118.037 78.8795ZM23.2848 68.2742L22.6403 68.0481C22.8035 67.5927 23.0188 67.1577 23.2787 66.7586L23.8502 67.1258C23.6204 67.4823 23.4333 67.8689 23.2848 68.2742ZM117.984 76.2675C117.883 75.8462 117.735 75.4408 117.552 75.0609L118.161 74.7591C118.374 75.1867 118.537 75.638 118.651 76.1129L117.984 76.2675ZM24.6635 66.1356L24.1903 65.6442C24.5376 65.3112 24.918 65.0181 25.3336 64.7707L25.685 65.3559C25.3191 65.5797 24.9728 65.8415 24.6635 66.1356ZM116.85 73.9865C116.575 73.6577 116.266 73.3601 115.924 73.0994L116.34 72.5561C116.724 72.847 117.072 73.1825 117.375 73.5532L116.85 73.9865ZM26.85 64.8223L26.6438 64.1737C27.0953 64.0295 27.5705 63.9351 28.0579 63.8942L28.1147 64.5754C27.6829 64.6098 27.2613 64.6921 26.8557 64.8203L26.85 64.8223ZM114.827 72.4392C114.438 72.2656 114.033 72.1363 113.606 72.0534L113.733 71.3852C114.215 71.475 114.672 71.6247 115.105 71.8151L114.827 72.4392ZM29.4138 64.6125L29.4743 63.9355L30.834 64.0544L30.7735 64.7314L29.4138 64.6125ZM32.1332 64.8502L32.1937 64.1733L33.5534 64.2921L33.493 64.9691L32.1332 64.8502ZM34.8527 65.088L34.9131 64.411L36.2728 64.5299L36.2124 65.2069L34.8527 65.088ZM37.5721 65.3257L37.6325 64.6488L38.9923 64.7676L38.9318 65.4446L37.5721 65.3257ZM40.2858 65.5655L40.3462 64.8885L41.706 65.0074L41.6455 65.6844L40.2858 65.5655ZM43.0052 65.8033L43.0657 65.1263L44.4254 65.2451L44.365 65.9221L43.0052 65.8033ZM45.7247 66.041L45.7851 65.364L47.1448 65.4829L47.0844 66.1599L45.7247 66.041ZM48.4441 66.2788L48.5045 65.6018L49.8642 65.7206L49.8038 66.3976L48.4441 66.2788ZM51.1578 66.5185L51.2182 65.8415L52.5779 65.9604L52.5175 66.6374L51.1578 66.5185ZM53.8715 66.7583L53.9319 66.0813L55.2916 66.2001L55.2312 66.8771L53.8715 66.7583ZM56.5909 66.996L56.6513 66.319L58.0111 66.4379L57.9506 67.1149L56.5909 66.996ZM59.3046 67.2358L59.365 66.5588L60.7248 66.6777L60.6643 67.3546L59.3046 67.2358ZM62.024 67.4735L62.0845 66.7965L63.4442 66.9154L63.3838 67.5924L62.024 67.4735ZM64.7377 67.7133L64.7982 67.0363L66.1579 67.1552L66.0974 67.8321L64.7377 67.7133ZM67.4572 67.951L67.5176 67.274L68.8773 67.3929L68.8169 68.0699L67.4572 67.951ZM70.1709 68.1908L70.2313 67.5138L71.591 67.6327L71.5306 68.3096L70.1709 68.1908ZM72.8845 68.4305L72.945 67.7535L74.3047 67.8724L74.2443 68.5494L72.8845 68.4305ZM75.604 68.6683L75.6644 67.9913L77.0241 68.1102L76.9637 68.7871L75.604 68.6683ZM78.3234 68.906L78.3838 68.229L79.7436 68.3479L79.6831 69.0249L78.3234 68.906ZM81.0371 69.1458L81.0975 68.4688L82.4573 68.5877L82.3968 69.2646L81.0371 69.1458ZM83.7508 69.3855L83.8112 68.7085L85.1709 68.8274L85.1105 69.5044L83.7508 69.3855ZM86.4702 69.6233L86.5307 68.9463L87.8904 69.0652L87.8299 69.7421L86.4702 69.6233ZM89.1839 69.863L89.2444 69.186L90.6041 69.3049L90.5436 69.9819L89.1839 69.863ZM91.9033 70.1008L91.9638 69.4238L93.3235 69.5427L93.2631 70.2197L91.9033 70.1008ZM94.617 70.3405L94.6775 69.6635L96.0372 69.7824L95.9768 70.4594L94.617 70.3405ZM97.3365 70.5783L97.3969 69.9013L98.7566 70.0202L98.6962 70.6972L97.3365 70.5783ZM100.056 70.816L100.116 70.139L101.476 70.2579L101.416 70.9349L100.056 70.816ZM102.775 71.0538L102.836 70.3768L104.195 70.4957L104.135 71.1727L102.775 71.0538ZM105.495 71.2915L105.555 70.6145L106.915 70.7334L106.854 71.4104L105.495 71.2915ZM108.214 71.5293L108.275 70.8523L109.634 70.9712L109.574 71.6482L108.214 71.5293ZM110.928 71.769L110.988 71.0921L112.348 71.2109L112.288 71.8879L110.928 71.769Z" fill="#137421"/>
<path d="M53.8771 86.309L50.9306 86.0472L50.1967 94.3864L48.2196 94.212L48.9535 85.8729L45.9956 85.6152L46.1477 83.8516L54.0291 84.5454L53.8771 86.309Z" fill="#137421"/>
<path d="M55.2564 84.6525L57.2335 84.8268L56.3475 94.9296L54.3704 94.7552L55.2622 84.6505L55.2564 84.6525Z" fill="#137421"/>
<path d="M65.1578 95.2811C64.8317 95.4716 64.4261 95.5998 63.9369 95.6541C63.4478 95.7085 62.9599 95.7109 62.458 95.6732C61.8541 95.6195 61.2836 95.477 60.758 95.2417C60.2325 95.0064 59.7785 94.6627 59.4019 94.2084C59.0253 93.7541 58.7432 93.1833 58.5537 92.4904C58.3662 91.8031 58.3172 90.9777 58.3991 90.0296C58.4862 89.041 58.6966 88.2219 59.0322 87.5778C59.3677 86.9338 59.7704 86.4272 60.2459 86.0561C60.7214 85.685 61.233 85.4363 61.7845 85.3024C62.3381 85.1743 62.8889 85.1307 63.4254 85.1756C64.0024 85.2258 64.4875 85.3079 64.8809 85.422C65.2743 85.536 65.5985 85.6548 65.848 85.7803L65.312 87.4201C65.101 87.2941 64.848 87.1955 64.5455 87.1207C64.2486 87.0438 63.883 86.9909 63.4502 86.9484C62.6539 86.878 61.9864 87.1037 61.4495 87.6312C60.9127 88.1587 60.5933 89.0158 60.4877 90.2101C60.4425 90.7275 60.4564 91.2114 60.5369 91.6464C60.6174 92.0815 60.7568 92.4639 60.9666 92.7897C61.1763 93.1155 61.4467 93.3752 61.7854 93.5725C62.1242 93.7699 62.5215 93.8954 62.985 93.9336C63.4158 93.9703 63.7864 93.9636 64.093 93.902C64.3996 93.8405 64.6712 93.7524 64.9022 93.64L65.1617 95.2926L65.1578 95.2811Z" fill="#137421"/>
<path d="M69.2239 91.7129L68.7065 91.6677L68.3279 95.9796L66.3508 95.8053L67.2369 85.7026L69.214 85.8769L68.8202 90.3484L69.2964 90.1828L72.4585 86.1636L74.7087 86.3651L71.3924 90.3479L70.563 90.8293L71.3242 91.4649L74.2689 96.512L71.8284 96.2995L69.2201 91.7207L69.2239 91.7129Z" fill="#137421"/>
<path d="M76.1863 86.4939L82.1771 87.0218L82.023 88.7797L78.0093 88.426L77.8032 90.7743L81.4593 91.0979L81.3052 92.8558L77.6511 92.5378L77.4351 95.0053L81.522 95.3657L81.3699 97.1293L75.3059 96.5946L76.192 86.4919L76.1863 86.4939Z" fill="#137421"/>
<path d="M90.7355 89.5514L87.789 89.2897L87.0551 97.6288L85.078 97.4545L85.8119 89.1153L82.854 88.8576L83.0061 87.094L90.8876 87.7878L90.7355 89.5514Z" fill="#137421"/>
<path d="M27.0809 78.2096L27.0753 78.1989L27.6652 77.1331C29.0877 73.808 27.5438 69.9624 24.2215 68.5453L23.0613 68.1824L23.0445 68.15L23.5355 67.0124L23.6206 67.0709C24.3589 67.3859 25.215 67.0442 25.5245 66.3087C25.8394 65.5705 25.4978 64.7144 24.7595 64.3994L24.6587 64.3765L24.971 63.6464L25.0561 63.7049C25.7944 64.0198 26.6505 63.6782 26.96 62.9427C27.2749 62.2044 26.9333 61.3483 26.195 61.0334L26.0942 61.0105L26.4432 60.1929L26.5283 60.2514C27.2666 60.5663 28.1227 60.2247 28.4376 59.4864C28.7526 58.7481 28.4109 57.892 27.6726 57.5771L27.5718 57.5541L27.9366 56.701L28.0217 56.7595C28.76 57.0744 29.6107 56.7356 29.9256 55.9973C30.2405 55.259 29.8989 54.4029 29.1606 54.088L29.0598 54.065L29.3984 53.2802L29.4835 53.3387C30.2218 53.6536 31.0779 53.312 31.3929 52.5737C31.7078 51.8354 31.3662 50.9793 30.6279 50.6644L30.527 50.6415L30.9076 49.7528L30.9927 49.8112C31.731 50.1262 32.5871 49.7846 32.902 49.0463C33.2169 48.308 32.8753 47.4519 32.137 47.1369L32.0361 47.114L32.3485 46.3839L32.4336 46.4424C33.1719 46.7573 34.028 46.4157 34.3429 45.6774C34.6578 44.9391 34.319 44.0884 33.5807 43.7735L33.4798 43.7506L33.8289 42.933L33.914 42.9915C34.6523 43.3064 35.5084 42.9648 35.8233 42.2265C36.1382 41.4882 35.7966 40.6321 35.0583 40.3172L34.9574 40.2942L35.3223 39.4411L35.4074 39.4996C36.1457 39.8145 37.0018 39.4729 37.3167 38.7346C37.6316 37.9963 37.2846 37.143 36.5517 36.8253L36.4508 36.8023L36.7895 36.0175L36.8746 36.076C37.6129 36.3909 38.469 36.0493 38.7839 35.311C39.0988 34.5727 38.7572 33.7166 38.0217 33.4071L37.9209 33.3842L38.3459 32.3834L38.3999 32.3554L39.4546 32.9373C42.7715 34.3572 46.6253 32.8158 48.0424 29.4935L48.4002 28.3498L48.4109 28.3442L134.582 65.1957L134 66.2505C132.577 69.5756 134.121 73.4211 137.446 74.8437C137.859 75.0195 138.285 75.1544 138.713 75.2403L138.77 75.2449L138.804 75.3367L138.384 76.3211L137.839 76.2071C137.271 76.2075 136.735 76.5334 136.496 77.0885C136.258 77.6436 136.392 78.2583 136.784 78.6708L137.242 78.9872L136.917 79.7447L136.372 79.6306C135.809 79.6282 135.268 79.957 135.029 80.5121C134.79 81.0672 134.925 81.6819 135.317 82.0944L135.775 82.4108L135.421 83.2312L134.876 83.1171C134.308 83.1175 133.772 83.4435 133.533 83.9986C133.294 84.5537 133.431 85.1738 133.826 85.5781L134.284 85.8945L133.946 86.6793L133.4 86.5653C132.838 86.5629 132.297 86.8916 132.058 87.4467C131.819 88.0018 131.956 88.6219 132.345 89.029L132.804 89.3454L132.505 90.0482L131.96 89.9341C131.392 89.9345 130.856 90.2604 130.617 90.8156C130.384 91.3679 130.512 91.9854 130.91 92.3951L131.368 92.7115L131.001 93.5728L130.456 93.4588C129.888 93.4592 129.35 93.7933 129.113 94.3402C128.88 94.8925 129.009 95.51 129.406 95.9197L129.865 96.2361L129.539 96.9936L128.994 96.8795C128.426 96.8799 127.89 97.2059 127.652 97.761C127.418 98.3133 127.547 98.9308 127.939 99.3433L128.397 99.6597L128.046 100.485L127.501 100.371C126.933 100.372 126.392 100.701 126.158 101.253C125.925 101.805 126.056 102.428 126.446 102.835L126.904 103.152L126.568 103.942L126.023 103.828C125.461 103.825 124.919 104.154 124.681 104.709C124.447 105.262 124.576 105.879 124.973 106.289L125.432 106.605L125.133 107.308L124.588 107.194C124.025 107.191 123.484 107.52 123.245 108.075C123.012 108.628 123.14 109.245 123.532 109.658L123.991 109.974L123.508 111.101L123.432 111.126L123.38 111.078C123.02 110.834 122.634 110.617 122.221 110.441C118.896 109.018 115.05 110.562 113.628 113.887L113.262 115.056L27.0917 78.204L27.0809 78.2096Z" fill="#36A546"/>
<path d="M34.0674 74.5156C33.619 74.324 33.1997 74.083 32.8151 73.8035L33.2198 73.2514C33.555 73.5017 33.9331 73.7161 34.3297 73.8867L34.0592 74.513L34.0674 74.5156ZM34.1987 74.5706L34.4691 73.9444L35.7241 74.4771L35.4537 75.1033L34.2041 74.5678L34.1987 74.5706ZM36.7062 75.6441L36.9766 75.0179L38.2344 75.5559L37.964 76.1822L36.7062 75.6441ZM39.2137 76.7176L39.4841 76.0914L40.7365 76.6322L40.4661 77.2584L39.2111 76.7258L39.2137 76.7176ZM41.7212 77.7911L41.9916 77.1649L43.2466 77.6975L42.979 78.3291L41.7212 77.7911ZM44.2287 78.8646L44.4963 78.233L45.7488 78.7738L45.4783 79.4L44.2233 78.8674L44.2287 78.8646ZM46.7362 79.9381L47.0066 79.3118L48.2645 79.8499L47.994 80.4761L46.7362 79.9381ZM49.2437 81.0115L49.5113 80.3799L50.7664 80.9126L50.4959 81.5388L49.2409 81.0062L49.2437 81.0115ZM51.7512 82.085L52.0216 81.4588L53.2795 81.9968L53.009 82.6231L51.7512 82.085ZM54.2587 83.1585L54.5291 82.5323L55.7842 83.0649L55.5137 83.6912L54.2587 83.1585ZM56.7662 84.232L57.0366 83.6058L58.2945 84.1438L58.024 84.77L56.7662 84.232ZM59.2737 85.3055L59.5441 84.6793L60.7992 85.2119L60.5316 85.8435L59.2765 85.3109L59.2737 85.3055ZM61.7812 86.379L62.0516 85.7527L63.3095 86.2908L63.0391 86.917L61.784 86.3844L61.7812 86.379ZM64.2887 87.4525L64.5591 86.8262L65.8142 87.3589L65.5438 87.9851L64.2887 87.4525ZM66.7962 88.5259L67.0638 87.8943L68.3163 88.4352L68.0459 89.0614L66.7908 88.5287L66.7962 88.5259ZM69.3037 89.5994L69.5741 88.9732L70.8292 89.5058L70.5588 90.1321L69.3037 89.5994ZM71.8112 90.6729L72.0817 90.0467L73.3313 90.5821L73.0609 91.2084L71.8112 90.6729ZM74.3187 91.7464L74.5892 91.1202L75.8442 91.6528L75.5738 92.279L74.3187 91.7464ZM76.8262 92.8199L77.0967 92.1936L78.3517 92.7263L78.0813 93.3525L76.8262 92.8199ZM79.3337 93.8934L79.6042 93.2671L80.8592 93.7998L80.5888 94.426L79.3337 93.8934ZM81.8412 94.9669L82.1117 94.3406L83.3613 94.8761L83.0909 95.5023L81.8359 94.9697L81.8412 94.9669ZM84.3488 96.0403L84.6192 95.4141L85.877 95.9521L85.6066 96.5784L84.3488 96.0403ZM86.8563 97.1138L87.1267 96.4876L88.3763 97.023L88.1059 97.6493L86.8509 97.1166L86.8563 97.1138ZM89.3638 98.1873L89.6342 97.5611L90.8892 98.0937L90.6188 98.72L89.3638 98.1873ZM91.8713 99.2608L92.1389 98.6292L93.3967 99.1672L93.1263 99.7934L91.8713 99.2608ZM95.0186 100.604L95.3165 100.546C95.4759 100.484 95.6185 100.389 95.7471 100.268L95.803 100.191L95.9096 100.238L95.6392 100.864L95.024 100.602L95.0186 100.604ZM96.8835 101.402L97.1511 100.771L98.4035 101.312L98.1331 101.938L96.8781 101.405L96.8835 101.402ZM99.391 102.476L99.6614 101.85L100.919 102.388L100.649 103.014L99.3938 102.481L99.391 102.476ZM101.898 103.549L102.169 102.923L103.419 103.459L103.151 104.09L101.896 103.558L101.898 103.549ZM104.406 104.623L104.674 103.991L105.931 104.529L105.661 105.155L104.406 104.623ZM106.913 105.696L107.184 105.07L108.434 105.606L108.166 106.237L106.911 105.705L106.913 105.696ZM109.421 106.77L109.689 106.138L110.946 106.676L110.676 107.302L109.421 106.77ZM111.953 107.837L112.18 107.193C112.592 107.342 113.009 107.433 113.431 107.481L113.357 108.156C112.886 108.106 112.42 107.999 111.95 107.832L111.953 107.837ZM31.7574 72.8468C31.445 72.482 31.1754 72.0813 30.9597 71.6525L31.5636 71.3392C31.7623 71.722 32.0013 72.077 32.2806 72.4043L31.7574 72.8468ZM114.799 108.153L114.716 107.478C115.142 107.428 115.561 107.327 115.964 107.179L116.199 107.817C115.75 107.981 115.282 108.094 114.799 108.153ZM30.4478 70.31C30.3294 69.8444 30.2679 69.3699 30.2552 68.8838L30.9396 68.8708C30.9516 69.3026 31.0068 69.7256 31.1082 70.1452L30.4478 70.31ZM117.483 107.178L117.11 106.605C117.468 106.372 117.798 106.098 118.095 105.786L118.585 106.257C118.254 106.607 117.881 106.917 117.48 107.173L117.483 107.178ZM30.3939 67.4499C30.4751 67.0656 30.597 66.6807 30.7598 66.3088L30.849 66.0982L31.4807 66.3658L31.3915 66.5764C31.2498 66.91 31.138 67.2485 31.0644 67.5947L30.3993 67.4471L30.3939 67.4499ZM119.454 105.108L118.865 104.764C118.986 104.564 119.095 104.35 119.192 104.129L119.431 103.574L120.057 103.844L119.818 104.399C119.713 104.645 119.592 104.886 119.457 105.114L119.454 105.108ZM31.3817 64.8432L31.9171 63.5935L32.5488 63.8611L32.0133 65.1108L31.3817 64.8432ZM119.961 102.313L120.496 101.064L121.122 101.334L120.587 102.584L119.961 102.313ZM32.4552 62.3357L32.996 61.0832L33.6276 61.3508L33.0896 62.6087L32.458 62.3411L32.4552 62.3357ZM121.034 99.8057L121.567 98.5507L122.193 98.8211L121.66 100.076L121.034 99.8057ZM33.5259 59.8228L34.0613 58.5731L34.6929 58.8407L34.1603 60.0958L33.5287 59.8282L33.5259 59.8228ZM122.108 97.2982L122.64 96.0432L123.266 96.3136L122.734 97.5686L122.108 97.2982ZM34.5994 57.3153L35.1348 56.0656L35.7664 56.3332L35.2338 57.5883L34.6022 57.3207L34.5994 57.3153ZM123.178 94.7853L123.711 93.5303L124.337 93.8007L123.804 95.0557L123.178 94.7853ZM35.67 54.8024L36.2081 53.5445L36.8397 53.8121L36.3017 55.07L35.67 54.8024ZM124.252 92.2778L124.79 91.02L125.416 91.2904L124.878 92.5482L124.252 92.2778ZM36.7569 52.2811L37.2977 51.0286L37.924 51.299L37.3913 52.5541L36.7597 52.2865L36.7569 52.2811ZM125.339 89.7565L125.871 88.5015L126.497 88.7719L125.962 90.0215L125.339 89.7565ZM37.825 49.7764L38.363 48.5185L38.9893 48.7889L38.4566 50.044L37.825 49.7764ZM126.404 87.2464L126.942 85.9886L127.568 86.259L127.03 87.5168L126.404 87.2464ZM38.8957 47.2635L39.4365 46.011L40.0628 46.2814L39.5273 47.5311L38.8957 47.2635ZM127.475 84.7335L128.007 83.4785L128.633 83.7489L128.101 85.0039L127.475 84.7335ZM39.9692 44.756L40.5072 43.4981L41.1334 43.7685L40.6008 45.0236L39.9692 44.756ZM128.548 82.226L129.086 80.9682L129.712 81.2386L129.18 82.4936L128.553 82.2232L128.548 82.226ZM41.0427 42.2485L41.5807 40.9906L42.2069 41.261L41.6715 42.5107L41.0399 42.2431L41.0427 42.2485ZM129.622 79.7185L130.157 78.4689L130.783 78.7393L130.251 79.9943L129.624 79.7239L129.622 79.7185ZM42.1161 39.741L42.5965 38.6225L42.657 38.4885L43.2806 38.7671L43.2255 38.8984L42.7452 40.0168L42.1135 39.7492L42.1161 39.741ZM130.695 77.211L131.026 76.4372C131.091 76.2868 131.149 76.1337 131.198 75.9781L131.848 76.1884C131.788 76.3632 131.725 76.5326 131.652 76.7076L131.321 77.4814L130.695 77.211ZM43.9405 37.665L43.4017 37.2466C43.7002 36.859 44.0374 36.5198 44.4078 36.218L44.8342 36.7496C44.5067 37.0153 44.2017 37.3242 43.9405 37.665ZM131.456 74.7218C131.493 74.292 131.481 73.8602 131.421 73.44L132.096 73.3429C132.163 73.8146 132.181 74.2979 132.136 74.7795L131.456 74.7218ZM45.9215 36.0622L45.6243 35.4499C46.0558 35.2396 46.5125 35.0779 46.9836 34.9703L47.1377 35.6363C46.7153 35.7323 46.3099 35.8743 45.9269 36.0594L45.9215 36.0622ZM131.092 72.2006C130.934 71.8036 130.736 71.4208 130.491 71.0685L131.056 70.6797C131.331 71.0776 131.557 71.5008 131.727 71.9465L131.092 72.2006ZM48.4071 35.4977L48.4104 34.8184C48.8832 34.8195 49.3649 34.8774 49.8421 34.9925L49.681 35.6579C49.2583 35.5555 48.8337 35.5022 48.4099 35.5031L48.4071 35.4977ZM129.648 70.1032C129.337 69.8198 128.988 69.5697 128.605 69.3581L128.938 68.7608C129.363 68.999 129.755 69.281 130.105 69.5991L129.648 70.1032ZM50.9074 36.0959L51.1778 35.4696L52.4357 36.0077L52.1653 36.6339L50.9074 36.0959ZM53.4149 37.1693L53.6853 36.5431L54.9432 37.0811L54.6728 37.7074L53.4149 37.1693ZM55.9224 38.2428L56.1928 37.6166L57.4479 38.1492L57.1775 38.7755L55.9224 38.2428ZM58.4299 39.3163L58.7003 38.6901L59.9582 39.2281L59.6878 39.8543L58.4299 39.3163ZM60.9374 40.3898L61.2025 39.7664L62.4575 40.299L62.1871 40.9252L60.9374 40.3898ZM63.4449 41.4633L63.7154 40.837L64.9732 41.3751L64.7028 42.0013L63.4449 41.4633ZM65.9524 42.5368L66.2175 41.9133L67.4725 42.446L67.2021 43.0722L65.9524 42.5368ZM68.4599 43.6102L68.7304 42.984L69.98 43.5195L69.7096 44.1457L68.4599 43.6102ZM70.9675 44.6837L71.2379 44.0575L72.4875 44.5929L72.2171 45.2192L70.9675 44.6837ZM73.475 45.7572L73.7454 45.131L75.0032 45.669L74.7328 46.2953L73.475 45.7572ZM75.9825 46.8307L76.2529 46.2045L77.5079 46.7371L77.2375 47.3634L75.9825 46.8307ZM78.49 47.9042L78.7604 47.278L80.0154 47.8106L79.745 48.4368L78.4872 47.8988L78.49 47.9042ZM80.9975 48.9777L81.2679 48.3514L82.5175 48.8869L82.2525 49.5103L80.9947 48.9723L80.9975 48.9777ZM83.505 50.0512L83.7754 49.4249L85.0251 49.9604L84.7546 50.5866L83.505 50.0512ZM86.0125 51.1246L86.2829 50.4984L87.5326 51.0339L87.2621 51.6601L86.0097 51.1192L86.0125 51.1246ZM88.52 52.1981L88.7904 51.5719L90.0455 52.1045L89.775 52.7308L88.5172 52.1927L88.52 52.1981ZM91.0275 53.2716L91.2979 52.6454L92.5558 53.1834L92.2853 53.8097L91.0303 53.277L91.0275 53.2716ZM93.535 54.3451L93.8054 53.7189L95.0551 54.2543L94.7847 54.8805L93.535 54.3451ZM96.0425 55.4186L96.3075 54.7951L97.5626 55.3278L97.2922 55.954L96.0425 55.4186ZM98.55 56.4921L98.8204 55.8658L100.075 56.3985L99.805 57.0247L98.5472 56.4867L98.55 56.4921ZM101.058 57.5656L101.328 56.9393L102.586 57.4774L102.321 58.1008L101.063 57.5628L101.058 57.5656ZM103.565 58.639L103.835 58.0128L105.085 58.5483L104.82 59.1717L103.565 58.639ZM106.073 59.7125L106.338 59.0891L107.595 59.6271L107.33 60.2506L106.073 59.7125ZM108.58 60.786L108.85 60.1598L110.1 60.6952L109.83 61.3215L108.577 60.7806L108.58 60.786ZM111.088 61.8595L111.358 61.2333L112.616 61.7713L112.345 62.3975L111.088 61.8595ZM113.595 62.933L113.865 62.3068L115.115 62.8422L114.845 63.4684L113.595 62.933ZM116.103 64.0065L116.373 63.3802L117.623 63.9157L117.352 64.5419L116.103 64.0065ZM118.61 65.0799L118.88 64.4537L120.13 64.9892L119.86 65.6154L118.61 65.0799ZM121.118 66.1534L121.388 65.5272L122.638 66.0627L122.373 66.6861L121.118 66.1534ZM123.625 67.2269L123.895 66.6007L125.145 67.1361L124.875 67.7624L123.625 67.2269ZM126.133 68.3004L126.398 67.677L127.653 68.2096L127.382 68.8358L126.133 68.3004Z" fill="#137421"/>
<path d="M69.1368 63.0125L66.4188 61.8499L63.1249 69.5474L61.3037 68.7678L64.5976 61.0703L61.8632 59.9025L62.5587 58.2755L69.8323 61.3856L69.1368 63.0125Z" fill="#137421"/>
<path d="M70.9591 61.8684L72.7803 62.648L68.7909 71.9724L66.9697 71.1929L70.9591 61.8684Z" fill="#137421"/>
<path d="M77.0613 75.0515C76.6877 75.1359 76.2636 75.1232 75.7895 75.0271C75.3125 74.9256 74.8403 74.7806 74.3808 74.581C73.8257 74.3421 73.3265 74.0263 72.8996 73.6388C72.4726 73.2513 72.1477 72.7834 71.9302 72.2325C71.7127 71.6815 71.6245 71.0498 71.6654 70.3374C71.6981 69.6223 71.9089 68.8286 72.2869 67.9481C72.6807 67.032 73.1318 66.3188 73.6485 65.8111C74.1653 65.3035 74.706 64.9476 75.2761 64.7407C75.8409 64.5366 76.4075 64.4547 76.9733 64.5032C77.5392 64.5518 78.0737 64.685 78.5712 64.8922C79.1072 65.1205 79.5399 65.3476 79.8775 65.5762C80.2151 65.8048 80.4846 66.0208 80.6832 66.2188L79.6608 67.6117C79.4978 67.4294 79.2886 67.2505 79.0253 67.086C78.7621 66.9215 78.4362 66.7552 78.0343 66.5874C77.2961 66.2725 76.5898 66.2831 75.9183 66.6111C75.2495 66.9444 74.6761 67.6595 74.2009 68.7615C73.999 69.2427 73.8619 69.7039 73.8006 70.1395C73.742 70.5805 73.7563 70.9906 73.8515 71.3586C73.9495 71.7321 74.1284 72.0636 74.3855 72.3613C74.6426 72.659 74.9831 72.8929 75.4123 73.074C75.8142 73.2418 76.1636 73.3479 76.4766 73.384C76.7895 73.42 77.0722 73.4239 77.327 73.3875L77.0611 75.0379L77.0613 75.0515Z" fill="#137421"/>
<path d="M82.0354 72.928L81.5596 72.7232L79.8563 76.7073L78.0352 75.9278L82.0245 66.6033L83.8457 67.3828L82.0793 71.5091L82.5846 71.507L86.8426 68.6609L88.9208 69.5533L84.531 72.3036L83.5993 72.4997L84.1227 73.3367L85.3551 79.048L83.1047 78.0875L82.049 72.9278L82.0354 72.928Z" fill="#137421"/>
<path d="M90.276 70.1308L95.8078 72.4955L95.1123 74.1224L91.4098 72.5399L90.4834 74.711L93.8523 76.1519L93.1568 77.7789L89.7879 76.338L88.8142 78.6158L92.5878 80.2299L91.8923 81.8569L86.2976 79.4632L90.287 70.1387L90.276 70.1308Z" fill="#137421"/>
<path d="M103.159 77.5632L100.441 76.4005L97.1469 84.098L95.3203 83.3213L98.6142 75.6238L95.8852 74.4531L96.5807 72.8261L103.854 75.9362L103.159 77.5632Z" fill="#137421"/>
</svg>
