<svg width="27" height="27" viewBox="0 0 27 27" fill="none" xmlns="http://www.w3.org/2000/svg">
<circle cx="13.5" cy="13.5" r="13.5" fill="#B6FB88"/>
<path d="M15.375 16.625V17.25C15.375 18.2855 14.5355 19.125 13.5 19.125C12.4645 19.125 11.625 18.2855 11.625 17.25V16.625M15.375 16.625H11.625M15.375 16.625H17.6191C17.8581 16.625 17.9783 16.625 18.0751 16.5923C18.26 16.53 18.4047 16.3848 18.467 16.1999C18.4998 16.1027 18.4998 15.9822 18.4998 15.7412C18.4998 15.6358 18.4997 15.583 18.4915 15.5328C18.4759 15.4378 18.439 15.3477 18.3828 15.2695C18.3532 15.2282 18.3155 15.1905 18.2411 15.1161L17.9977 14.8727C17.9191 14.7941 17.875 14.6876 17.875 14.5765V12.25C17.875 9.83375 15.9162 7.87499 13.5 7.875C11.0838 7.87501 9.125 9.83376 9.125 12.25V14.5765C9.125 14.6876 9.08078 14.7941 9.00223 14.8727L8.75879 15.1161C8.68423 15.1907 8.6469 15.2282 8.61719 15.2695C8.56103 15.3477 8.52384 15.4378 8.50825 15.5328C8.5 15.583 8.5 15.6358 8.5 15.7412C8.5 15.9822 8.5 16.1026 8.53278 16.1998C8.59516 16.3848 8.7405 16.53 8.92542 16.5923C9.02222 16.625 9.14188 16.625 9.38097 16.625H11.625M17.2616 7.25854C18.1236 7.90812 18.8027 8.76985 19.2327 9.75984M9.73873 7.25854C8.87672 7.90812 8.19762 8.76985 7.76758 9.75984" stroke="#00320F" stroke-linecap="round" stroke-linejoin="round"/>
</svg>
