<svg width="9" height="9" viewBox="0 0 9 9" fill="none" xmlns="http://www.w3.org/2000/svg">
<path d="M4.35616 8.71233C6.76201 8.71233 8.71233 6.76201 8.71233 4.35616C8.71233 1.95032 6.76201 0 4.35616 0C1.95032 0 0 1.95032 0 4.35616C0 6.76201 1.95032 8.71233 4.35616 8.71233Z" fill="#1C8EFF"/>
<path d="M7.18434 3.4842L4.0538 6.61474C3.9256 6.74294 3.71756 6.74294 3.58936 6.61474L1.52877 4.55415C1.40057 4.42595 1.40057 4.21791 1.52877 4.08971L2.05087 3.56761C2.17906 3.43941 2.387 3.43941 2.5153 3.56761L3.82152 4.87373L6.19769 2.49756C6.326 2.36925 6.53393 2.36936 6.66213 2.49756L7.18423 3.01976C7.31243 3.14807 7.31243 3.35589 7.18423 3.4842H7.18434Z" fill="white"/>
</svg>
