<svg width="22" height="22" viewBox="0 0 22 22" fill="none" xmlns="http://www.w3.org/2000/svg">
<g clip-path="url(#clip0_707_3884)">
<path d="M11 11.9166C13.1963 11.9166 15.1937 12.5528 16.6632 13.4493C17.3965 13.8966 18.0235 14.4246 18.4763 14.9985C18.9218 15.5622 19.25 16.2369 19.25 16.9583C19.25 17.7329 18.8733 18.3434 18.3306 18.7788C17.8173 19.1913 17.1398 19.4645 16.4202 19.6551C14.9738 20.0374 13.0433 20.1666 11 20.1666C8.95675 20.1666 7.02625 20.0383 5.57975 19.6551C4.86017 19.4645 4.18275 19.1913 3.66942 18.7788C3.12583 18.3425 2.75 17.7329 2.75 16.9583C2.75 16.2369 3.07817 15.5622 3.52367 14.9976C3.9765 14.4246 4.60258 13.8976 5.33683 13.4484C6.80625 12.5537 8.80458 11.9166 11 11.9166ZM11 1.83331C12.2156 1.83331 13.3814 2.3162 14.2409 3.17574C15.1004 4.03528 15.5833 5.20107 15.5833 6.41665C15.5833 7.63222 15.1004 8.79801 14.2409 9.65755C13.3814 10.5171 12.2156 11 11 11C9.78442 11 8.61864 10.5171 7.75909 9.65755C6.89955 8.79801 6.41667 7.63222 6.41667 6.41665C6.41667 5.20107 6.89955 4.03528 7.75909 3.17574C8.61864 2.3162 9.78442 1.83331 11 1.83331Z" fill="#C4C6D2"/>
</g>
<defs>
<clipPath id="clip0_707_3884">
<rect width="22" height="22" fill="white"/>
</clipPath>
</defs>
</svg>
