<svg width="18" height="18" viewBox="0 0 18 18" fill="none" xmlns="http://www.w3.org/2000/svg">
<path d="M16.6899 4.01295C14.0694 -0.000228638 8.71938 -1.19315 4.57026 1.3014C0.530372 3.79614 -0.779716 9.21924 1.84066 13.2324L2.05911 13.5577L0.0634264 17.2488C-0.176746 17.6931 0.311111 18.1763 0.757754 17.9361L4.46104 15.944L4.78871 16.161C6.20803 16.9201 7.73676 17.3541 9.2653 17.3541C10.9031 17.3541 12.5408 16.9201 13.9603 16.0525C18.0002 13.4494 19.2011 8.13462 16.6899 4.01295ZM14.397 12.3646C13.9603 13.0154 13.4144 13.4494 12.65 13.5577C12.2134 13.5577 11.6674 13.7747 9.48375 12.9071C7.62754 12.0393 6.099 10.6294 5.00696 9.00224C4.35202 8.24313 4.02434 7.26701 3.91512 6.29069C3.91512 5.42307 4.24279 4.66376 4.78871 4.12145C5.00696 3.90444 5.22541 3.79614 5.44386 3.79614H5.98978C6.20802 3.79614 6.42647 3.79614 6.5357 4.22995C6.75395 4.77226 7.29987 6.07389 7.29987 6.18219C7.40909 6.29069 7.40909 6.50769 7.29987 6.6162C7.40909 6.833 7.29987 7.05 7.19085 7.15851C7.08162 7.26701 6.9724 7.48381 6.86317 7.59232C6.64492 7.70082 6.5357 7.91762 6.64492 8.13463C7.08162 8.78544 7.62754 9.43625 8.17346 9.97856C8.8286 10.5209 9.48375 10.9547 10.2479 11.28C10.4664 11.3885 10.6846 11.3885 10.7938 11.1717C10.9031 10.9547 11.449 10.4124 11.6674 10.1954C11.8857 9.97856 11.9949 9.97856 12.2134 10.0871L13.9603 10.9547C14.1786 11.0632 14.397 11.1717 14.5063 11.28C14.6155 11.6055 14.6155 12.0393 14.397 12.3646Z" fill="white"/>
</svg>
